<svg width="173" height="29" viewBox="0 0 173 29" fill="none" xmlns="http://www.w3.org/2000/svg">
<path d="M14.328 14.264C15.288 14.568 16.04 15.08 16.584 15.8C17.128 16.504 17.4 17.376 17.4 18.416C17.4 19.888 16.824 21.024 15.672 21.824C14.536 22.608 12.872 23 10.68 23H1.992V6.2H10.2C12.248 6.2 13.816 6.592 14.904 7.376C16.008 8.16 16.56 9.224 16.56 10.568C16.56 11.384 16.36 12.112 15.96 12.752C15.576 13.392 15.032 13.896 14.328 14.264ZM5.856 9.128V13.088H9.72C10.68 13.088 11.408 12.92 11.904 12.584C12.4 12.248 12.648 11.752 12.648 11.096C12.648 10.44 12.4 9.952 11.904 9.632C11.408 9.296 10.68 9.128 9.72 9.128H5.856ZM10.392 20.072C11.416 20.072 12.184 19.904 12.696 19.568C13.224 19.232 13.488 18.712 13.488 18.008C13.488 16.616 12.456 15.92 10.392 15.92H5.856V20.072H10.392ZM20.0796 5.192H23.8236V23H20.0796V5.192ZM32.5063 9.896C34.5063 9.896 36.0423 10.376 37.1143 11.336C38.1863 12.28 38.7223 13.712 38.7223 15.632V23H35.2183V21.392C34.5143 22.592 33.2023 23.192 31.2823 23.192C30.2903 23.192 29.4263 23.024 28.6903 22.688C27.9703 22.352 27.4183 21.888 27.0343 21.296C26.6503 20.704 26.4583 20.032 26.4583 19.28C26.4583 18.08 26.9063 17.136 27.8023 16.448C28.7143 15.76 30.1143 15.416 32.0023 15.416H34.9783C34.9783 14.6 34.7303 13.976 34.2343 13.544C33.7383 13.096 32.9943 12.872 32.0023 12.872C31.3143 12.872 30.6343 12.984 29.9623 13.208C29.3063 13.416 28.7463 13.704 28.2823 14.072L26.9383 11.456C27.6423 10.96 28.4823 10.576 29.4583 10.304C30.4503 10.032 31.4663 9.896 32.5063 9.896ZM32.2183 20.672C32.8583 20.672 33.4263 20.528 33.9223 20.24C34.4183 19.936 34.7703 19.496 34.9783 18.92V17.6H32.4103C30.8743 17.6 30.1063 18.104 30.1063 19.112C30.1063 19.592 30.2903 19.976 30.6583 20.264C31.0423 20.536 31.5623 20.672 32.2183 20.672ZM48.4914 23.192C47.1154 23.192 45.8754 22.912 44.7714 22.352C43.6834 21.776 42.8274 20.984 42.2034 19.976C41.5954 18.968 41.2914 17.824 41.2914 16.544C41.2914 15.264 41.5954 14.12 42.2034 13.112C42.8274 12.104 43.6834 11.32 44.7714 10.76C45.8754 10.184 47.1154 9.896 48.4914 9.896C49.8514 9.896 51.0354 10.184 52.0434 10.76C53.0674 11.32 53.8114 12.128 54.2754 13.184L51.3714 14.744C50.6994 13.56 49.7314 12.968 48.4674 12.968C47.4914 12.968 46.6834 13.288 46.0434 13.928C45.4034 14.568 45.0834 15.44 45.0834 16.544C45.0834 17.648 45.4034 18.52 46.0434 19.16C46.6834 19.8 47.4914 20.12 48.4674 20.12C49.7474 20.12 50.7154 19.528 51.3714 18.344L54.2754 19.928C53.8114 20.952 53.0674 21.752 52.0434 22.328C51.0354 22.904 49.8514 23.192 48.4914 23.192ZM61.8814 17.936L60.0814 19.712V23H56.3374V5.192H60.0814V15.272L65.5534 10.088H70.0174L64.6414 15.56L70.4974 23H65.9614L61.8814 17.936ZM84.9386 10.088V20.84C84.9386 23.208 84.3226 24.968 83.0906 26.12C81.8586 27.272 80.0586 27.848 77.6906 27.848C76.4426 27.848 75.2586 27.696 74.1386 27.392C73.0186 27.088 72.0906 26.648 71.3546 26.072L72.8426 23.384C73.3866 23.832 74.0746 24.184 74.9066 24.44C75.7386 24.712 76.5706 24.848 77.4026 24.848C78.6986 24.848 79.6506 24.552 80.2586 23.96C80.8826 23.384 81.1946 22.504 81.1946 21.32V20.768C80.2186 21.84 78.8586 22.376 77.1146 22.376C75.9306 22.376 74.8426 22.12 73.8506 21.608C72.8746 21.08 72.0986 20.344 71.5226 19.4C70.9466 18.456 70.6586 17.368 70.6586 16.136C70.6586 14.904 70.9466 13.816 71.5226 12.872C72.0986 11.928 72.8746 11.2 73.8506 10.688C74.8426 10.16 75.9306 9.896 77.1146 9.896C78.9866 9.896 80.4106 10.512 81.3866 11.744V10.088H84.9386ZM77.8586 19.304C78.8506 19.304 79.6586 19.016 80.2826 18.44C80.9226 17.848 81.2426 17.08 81.2426 16.136C81.2426 15.192 80.9226 14.432 80.2826 13.856C79.6586 13.264 78.8506 12.968 77.8586 12.968C76.8666 12.968 76.0506 13.264 75.4106 13.856C74.7706 14.432 74.4506 15.192 74.4506 16.136C74.4506 17.08 74.7706 17.848 75.4106 18.44C76.0506 19.016 76.8666 19.304 77.8586 19.304ZM91.9993 11.792C92.4473 11.168 93.0473 10.696 93.7993 10.376C94.5673 10.056 95.4473 9.896 96.4393 9.896V13.352C96.0233 13.32 95.7433 13.304 95.5993 13.304C94.5273 13.304 93.6873 13.608 93.0793 14.216C92.4713 14.808 92.1673 15.704 92.1673 16.904V23H88.4233V10.088H91.9993V11.792ZM104.692 23.192C103.332 23.192 102.108 22.912 101.02 22.352C99.9483 21.776 99.1083 20.984 98.5003 19.976C97.8923 18.968 97.5883 17.824 97.5883 16.544C97.5883 15.264 97.8923 14.12 98.5003 13.112C99.1083 12.104 99.9483 11.32 101.02 10.76C102.108 10.184 103.332 9.896 104.692 9.896C106.052 9.896 107.268 10.184 108.34 10.76C109.412 11.32 110.252 12.104 110.86 13.112C111.468 14.12 111.772 15.264 111.772 16.544C111.772 17.824 111.468 18.968 110.86 19.976C110.252 20.984 109.412 21.776 108.34 22.352C107.268 22.912 106.052 23.192 104.692 23.192ZM104.692 20.12C105.652 20.12 106.436 19.8 107.044 19.16C107.668 18.504 107.98 17.632 107.98 16.544C107.98 15.456 107.668 14.592 107.044 13.952C106.436 13.296 105.652 12.968 104.692 12.968C103.732 12.968 102.94 13.296 102.316 13.952C101.692 14.592 101.38 15.456 101.38 16.544C101.38 17.632 101.692 18.504 102.316 19.16C102.94 19.8 103.732 20.12 104.692 20.12ZM127.283 10.088V23H123.731V21.464C123.235 22.024 122.643 22.456 121.955 22.76C121.267 23.048 120.523 23.192 119.723 23.192C118.027 23.192 116.683 22.704 115.691 21.728C114.699 20.752 114.203 19.304 114.203 17.384V10.088H117.947V16.832C117.947 18.912 118.819 19.952 120.563 19.952C121.459 19.952 122.179 19.664 122.723 19.088C123.267 18.496 123.539 17.624 123.539 16.472V10.088H127.283ZM138.599 9.896C140.199 9.896 141.487 10.376 142.463 11.336C143.455 12.296 143.951 13.72 143.951 15.608V23H140.207V16.184C140.207 15.16 139.983 14.4 139.535 13.904C139.087 13.392 138.439 13.136 137.591 13.136C136.647 13.136 135.895 13.432 135.335 14.024C134.775 14.6 134.495 15.464 134.495 16.616V23H130.751V10.088H134.327V11.6C134.823 11.056 135.439 10.64 136.175 10.352C136.911 10.048 137.719 9.896 138.599 9.896ZM160.638 5.192V23H157.062V21.512C156.134 22.632 154.79 23.192 153.03 23.192C151.814 23.192 150.71 22.92 149.718 22.376C148.742 21.832 147.974 21.056 147.414 20.048C146.854 19.04 146.574 17.872 146.574 16.544C146.574 15.216 146.854 14.048 147.414 13.04C147.974 12.032 148.742 11.256 149.718 10.712C150.71 10.168 151.814 9.896 153.03 9.896C154.678 9.896 155.966 10.416 156.894 11.456V5.192H160.638ZM153.678 20.12C154.622 20.12 155.406 19.8 156.03 19.16C156.654 18.504 156.966 17.632 156.966 16.544C156.966 15.456 156.654 14.592 156.03 13.952C155.406 13.296 154.622 12.968 153.678 12.968C152.718 12.968 151.926 13.296 151.302 13.952C150.678 14.592 150.366 15.456 150.366 16.544C150.366 17.632 150.678 18.504 151.302 19.16C151.926 19.8 152.718 20.12 153.678 20.12Z" fill="black"/>
<circle cx="169.5" cy="19.5" r="3.5" fill="#EF5DA8"/>
</svg>
