<svg width="80" height="80" viewBox="0 0 80 80" fill="none" xmlns="http://www.w3.org/2000/svg">
<circle cx="40" cy="40" r="40" fill="#F7CCD5"/>
<path d="M39.8308 22V61.7129" stroke="#FF5678" stroke-width="3" stroke-linecap="round" stroke-linejoin="round"/>
<path d="M48.8564 29.2205H35.318C33.6423 29.2205 32.0353 29.8862 30.8505 31.071C29.6656 32.2559 29 33.8629 29 35.5385C29 37.2141 29.6656 38.8211 30.8505 40.0059C32.0353 41.1908 33.6423 41.8564 35.318 41.8564H44.3436C46.0192 41.8564 47.6262 42.5221 48.8111 43.7069C49.9959 44.8918 50.6616 46.4988 50.6616 48.1744C50.6616 49.85 49.9959 51.457 48.8111 52.6419C47.6262 53.8267 46.0192 54.4924 44.3436 54.4924H29" stroke="#FF5678" stroke-width="3" stroke-linecap="round" stroke-linejoin="round"/>
</svg>
