<svg width="41" height="41" viewBox="0 0 41 41" fill="none" xmlns="http://www.w3.org/2000/svg">
<path d="M29.4999 3H11.9999C7.16738 3 3.24988 6.91751 3.24988 11.75V29.25C3.24988 34.0825 7.16738 38 11.9999 38H29.4999C34.3324 38 38.2499 34.0825 38.2499 29.25V11.75C38.2499 6.91751 34.3324 3 29.4999 3Z" stroke="#FF5678" stroke-width="5" stroke-linecap="round" stroke-linejoin="round"/>
<path d="M27.7498 19.3975C27.9658 20.854 27.717 22.3414 27.0389 23.6483C26.3608 24.9552 25.2879 26.015 23.9727 26.677C22.6575 27.3389 21.1671 27.5693 19.7135 27.3354C18.2598 27.1015 16.9169 26.4152 15.8758 25.3741C14.8347 24.333 14.1484 22.9901 13.9145 21.5364C13.6806 20.0828 13.911 18.5924 14.5729 17.2772C15.2349 15.962 16.2947 14.8891 17.6016 14.211C18.9085 13.5328 20.3959 13.2841 21.8524 13.5C23.338 13.7203 24.7133 14.4126 25.7753 15.4746C26.8373 16.5365 27.5296 17.9119 27.7498 19.3975Z" stroke="#FF5678" stroke-width="5" stroke-linecap="round" stroke-linejoin="round"/>
<path d="M30.3749 10.8752H30.3924" stroke="#FF5678" stroke-width="5" stroke-linecap="round" stroke-linejoin="round"/>
</svg>
