<svg width="360" height="257" viewBox="0 0 360 257" fill="none" xmlns="http://www.w3.org/2000/svg">
<path fill-rule="evenodd" clip-rule="evenodd" d="M206.891 108.064C210.771 110.876 210.153 116.41 208.986 120.431C207.266 126.351 203.84 131.832 199.932 136.556C193 144.937 181.231 154.347 170.382 146.99C160.721 140.437 154.628 127.215 152.524 116.078C151.874 112.636 151.008 107.508 154.063 104.921C158.579 101.096 166.544 101.792 171.996 102.284C175.586 102.608 179.05 103.709 182.598 103.192C190.841 101.991 200.016 103.079 206.891 108.064Z" fill="#FF5678"/>
<path fill-rule="evenodd" clip-rule="evenodd" d="M39.7575 151.92C47.6169 161.89 60.9789 163.465 72.8464 163.368C79.9728 163.309 87.1128 162.772 94.0992 161.32C97.8657 160.537 101.607 159.499 105.246 158.254C107.65 157.43 111.229 157.019 112.252 154.443C114.95 147.647 112.965 139.124 111.854 132.226C111.288 128.718 110.864 125.188 110.314 121.676C109.963 119.43 109.794 116.944 108.853 114.843C107.75 112.38 106.358 112.872 104.026 113.552C100.814 114.49 97.5156 114.88 94.2129 115.384C86.1523 116.615 79.1199 119.097 71.7945 122.615C64.5509 126.093 57.5246 129.526 51.0636 134.363C47.7902 136.814 44.9695 139.475 42.3418 142.598C40.3117 145.012 37.2818 148.779 39.7575 151.92ZM74.113 196.203C74.1762 197.276 86.4938 194.035 88.1146 193.672C98.7504 191.286 109.597 188.569 119.637 184.259C129.009 180.236 137.267 175.634 144.642 168.486C148.08 165.155 151.172 161.646 154.13 157.91C155.613 156.037 157.639 156.254 159.293 154.67C160.78 153.244 161.921 152.131 161.456 149.999C157.739 150.978 150.876 157.134 147.023 154.025C144.827 152.254 147.873 150.403 149.279 149.376C151.922 147.445 154.183 145.063 156.284 142.563C152.676 143.262 149.318 144.614 146.178 146.495C144.783 147.33 140.001 150.36 138.888 147.472C138.203 145.693 141.445 143.459 142.456 142.475C144.939 140.06 147.618 137.24 148.936 133.993C145.678 133.237 142.606 135.755 140.387 137.807C137.924 140.084 134.905 142.474 132.84 145.098C131.774 146.451 131.542 148.05 130.71 149.509C129.773 151.152 128.275 152.56 126.844 153.775C124.085 156.117 120.859 157.841 117.547 159.267C109.979 162.525 101.867 164.831 93.8006 166.448C89.8431 167.242 85.9831 167.608 81.9664 167.742C78.8446 167.847 77.4633 168.781 76.2714 171.657C73.046 179.44 73.6316 188.002 74.113 196.203ZM166.747 136.9C168.552 138.589 170.897 139.648 172.784 141.272C174.444 142.7 176.359 144.225 178.211 145.38C180.189 146.613 181.667 145.748 183.448 144.632C185.539 143.323 187.942 142.793 190.096 141.622C197.541 137.57 206.649 127.641 205.259 118.524C204.67 114.66 202.672 110.858 199.045 109.105C195.75 107.513 190.961 106.629 187.437 107.96C185.448 108.711 184.026 110.368 182.752 111.998C181.267 113.897 180.698 113.598 179.185 111.766C176.478 108.489 172.014 105.613 167.601 105.683C165.408 105.717 163.23 106.18 161.254 107.09C160.986 107.213 160.837 107.587 160.569 107.714C160.239 107.869 159.697 107.546 159.467 107.691C158.889 108.057 158.311 109.201 157.978 109.781C156.639 112.111 154.228 116.678 156.658 118.639C156.659 118.64 156.549 121.293 156.583 121.595C156.754 123.178 157.301 124.484 158.006 125.931C160.122 130.279 163.247 133.626 166.747 136.9ZM163.148 173.684C164.858 174.215 166.7 168.857 165.06 168.002C163.496 167.186 161.6 173.203 163.148 173.684ZM190.002 167.277C190.594 169.301 190.844 171.598 192.292 173.246C193.618 171.672 193.749 168.769 192.463 167.152C191.729 166.23 189.354 165.066 190.002 167.277ZM135.289 131.815C135.298 131.866 133.231 132.854 134.24 133.936C135.617 135.412 135.428 132.538 135.289 131.815ZM126.747 115.319C126.771 117.366 131.103 116.872 131.072 114.813C131.034 112.28 126.722 113.15 126.747 115.319ZM131.919 98.2152C131.49 96.3415 123.954 93.735 124.159 97.0005C124.262 98.6378 132.828 102.199 131.919 98.2152ZM209.172 161.757C210.017 162.773 211.216 163.173 212.229 163.953C213.291 164.77 214.05 165.83 214.977 166.789C217.524 169.422 220.59 171.586 223.337 174.004C228.388 178.451 233.227 183.231 238.828 187.002C248.836 193.74 260.442 197.426 271.963 200.653C272.917 200.92 275.667 201.999 276.611 201.196C277.63 200.329 277.112 197.279 277.065 196.125C276.874 191.397 276.323 186.613 276.382 181.892C276.407 179.952 276.975 177.196 275.963 175.421C274.833 173.44 271.679 172.86 269.728 172.114C263.797 169.847 258.085 166.024 252.846 162.483C246.406 158.129 239.902 153.703 233.275 149.639C226.782 145.658 219.621 142.992 212.378 140.718C212.043 141.423 215.498 143.692 215.893 144.01C217.788 145.535 219.849 147.116 221.256 149.13C222.252 150.555 223.273 153.781 220.523 153.864C219.191 153.904 217.22 152.615 216.012 152.198C214.016 151.509 211.959 151.025 209.871 150.711C211.666 152.687 217.75 156.238 216.643 159.525C215.569 162.715 209.356 158.992 207.218 158.992C207.568 160.105 208.449 160.889 209.172 161.757ZM282.571 170.66C286.55 172.06 290.628 172.855 294.735 173.758C298.649 174.62 302.267 175.269 306.276 174.764C311.811 174.068 317.937 171.776 318.638 165.486C319.47 158.034 314.207 151.186 309.688 145.839C304.188 139.334 298.012 133.519 291.319 128.253C284.633 122.992 277.417 118.354 269.856 114.439C264.105 111.46 257.609 109.651 251.527 107.416C250.37 106.991 247.17 105.496 246.088 106.735C245.213 107.736 246.404 109.405 246.802 110.335C247.58 112.147 247.687 113.972 247.888 115.919C248.784 124.611 249.864 133.3 250.36 142.03C250.499 144.463 250.742 147.007 250.6 149.442C250.522 150.79 249.82 152.508 250.287 153.824C251.186 156.355 255.299 158.03 257.479 159.161C261.382 161.184 265.515 162.694 269.458 164.63C273.789 166.756 278.005 169.054 282.571 170.66ZM227.39 114.182C226.298 114.032 224.662 113.735 223.688 114.442C222.419 115.365 222.752 116.649 223.924 117.318C224.85 117.847 227.018 117.991 227.933 117.511C229.491 116.694 229.228 114.435 227.39 114.182ZM221.341 134.309C222.224 135.779 225.45 136.743 225.169 134C224.928 131.651 219.716 131.602 221.341 134.309ZM222.539 92.9C221.12 93.4496 218.545 93.9201 218.125 95.7449C217.733 97.4437 219.343 97.3313 220.504 96.8639C221.46 96.4801 225.716 92.8708 222.539 92.9ZM0.252018 157.698C1.08061 154.473 0.449577 150.903 0.906816 147.6C1.35041 144.399 2.14868 141.457 3.29405 138.439C5.83034 131.76 8.73595 125.747 12.8471 119.884C20.5898 108.845 29.5729 99.1203 40.4204 91.0565C51.1293 83.0961 62.9877 76.6267 75.5494 72.0926C88.87 67.2841 102.278 65.6106 116.326 64.6888C120.521 64.414 124.711 64.0878 128.883 63.5578C131.931 63.1706 135.753 62.6935 138.767 63.6274C140.661 64.2143 141.719 65.8657 139.656 66.9493C138.193 67.7178 136.278 67.8096 134.663 68.0138C136.614 74.2129 139.789 80.4332 144.821 84.7016C149.733 88.8691 156.306 90.2976 162.505 91.3545C165.867 91.9273 169.631 92.3706 173.045 92.1235C175.203 91.9677 176.887 90.9683 177.758 93.1915C178.362 94.736 178.648 96.4307 179.445 94.0986C180.387 91.3414 180.85 91.3591 183.781 90.576C189.776 88.9745 196.648 87.5132 201.878 84.0501C207.303 80.4569 209.19 74.644 212.219 69.2315C212.969 67.8938 215.228 65.186 214.074 63.6531C213.018 62.2513 209.584 62.391 208.012 62.2448C206.353 62.0905 204.683 62.0839 203.019 62.0194C202.054 61.9821 200.114 62.3774 200.502 60.9368C201.088 58.7655 207.36 59.0439 208.917 59.0086C211.814 58.9435 214.75 59.0106 217.632 59.3293C231.922 60.9096 246.34 63.8316 260.167 67.7284C286.995 75.2879 312.979 89.2181 332.558 109.286C351.351 128.55 357.306 160.606 345.752 185.203C339.748 197.986 326.717 203.237 314.086 207.478C307.423 209.715 300.368 211.464 293.286 211.042C289.887 210.84 286.662 209.924 283.347 209.235C281.902 208.934 280.257 208.455 278.772 208.576C277.647 208.667 276.568 209.699 275.513 209.151C274.765 208.762 274.44 207.645 273.525 207.169C272.427 206.598 271.096 206.392 269.91 206.104C266.614 205.303 263.423 204.005 260.201 202.94C256.869 201.839 253.725 200.421 250.528 198.988C248.914 198.263 245.179 195.32 244.127 197.472C243.648 198.454 243.852 200.348 243.735 201.379C243.53 203.18 243.29 204.978 243.027 206.772C242.448 210.722 241.755 214.655 241.045 218.583C239.762 225.671 238.11 232.457 235.348 239.124C233.142 244.448 231.205 250.482 227.109 254.718C225.321 256.566 222.881 257.398 220.317 256.817C217.4 256.156 215.948 253.506 214.177 251.364C210.28 246.649 203.848 243.037 197.908 241.736C190.634 240.144 183.548 242.473 176.605 244.453C169.261 246.547 161.785 248.542 154.576 251.059C147.859 253.406 140.606 256.87 133.321 256.569C126.968 256.306 121.034 251.135 116.452 247.194C111.851 243.236 106.097 237.44 99.4804 237.907C96.1949 238.138 93.2009 239.723 90.0007 240.367C86.4873 241.075 82.749 241.175 79.1765 241.439C74.7416 241.766 64.8197 240.61 63.1792 235.275C62.9357 234.483 62.9342 232.853 63.9795 232.537C64.941 232.246 65.4321 233.37 66.343 233.318C68.1962 233.214 69.6442 229.983 70.6623 228.732C74.7709 223.682 80.4068 219.915 85.0171 215.353C90.223 210.202 94.6676 203.961 98.5902 197.806C96.8169 197.345 94.9035 198.11 93.1872 198.474C91.1016 198.915 89.0696 199.449 87.0143 200.015C84.7493 200.639 82.452 201.067 80.1531 201.543C78.4379 201.897 76.1613 202.004 74.6132 202.864C73.2617 203.615 72.5074 204.422 70.8295 204.64C69.1233 204.861 67.3717 204.675 65.6574 204.663C61.0214 204.632 56.3949 204.546 51.7806 204.056C35.4761 202.324 18.193 195.427 8.38885 181.74C5.72221 178.018 3.57396 173.894 2.21639 169.517C1.1569 166.1 -0.670038 161.286 0.252018 157.698Z" fill="black"/>
<path fill-rule="evenodd" clip-rule="evenodd" d="M153.176 0.00355243C148.891 0.0642004 144.875 1.33477 140.883 2.77921C137.372 4.04928 133.629 5.22433 130.79 7.75941C125.683 12.3196 124.353 19.8703 123.517 26.3303C122.475 34.3914 125.944 41.1547 128.863 48.4476C131.594 55.2685 136.605 60.794 142.562 65.0045C145.683 67.2101 149.132 68.5413 152.74 69.7088C156.406 70.8944 159.956 72.4824 163.878 72.4763C169.833 72.4677 177.458 69.639 179.995 63.7713C181.15 61.0998 180.025 60.6202 177.714 62.0722C174.361 64.1787 171.129 66.452 167.211 67.3864C159.612 69.1993 150.51 66.3908 143.847 62.6852C137.186 58.9806 132.715 53.4157 129.726 46.4862C126.711 39.4955 125.539 32.6069 126.702 25.0704C127.688 18.6836 129.648 12.8498 135.403 9.38276C147.828 1.89931 164.567 2.50225 175.616 12.2276C177.132 13.5609 178.63 14.8583 180.191 16.1314C181.184 16.9405 182.353 17.9114 182.209 19.3108C182.085 20.5091 179.53 25.1295 182.607 23.7103C185.101 22.5595 186.456 20.31 189.478 20.0315C192.693 19.7349 196.529 22.2052 197.491 25.3145C198.409 28.2812 196.773 32.34 194.21 34.0417C192.623 35.0955 190.877 34.9327 189.074 34.8903C188.18 34.869 185.69 34.5784 185.098 35.524C184.051 37.1964 187.746 38.9542 188.938 39.3241C191.84 40.2243 195.269 39.1649 196.937 36.5748C198.633 33.9416 199.793 30.8941 200.027 27.7571C200.25 24.7514 199.568 21.7084 197.795 19.2406C195.909 16.616 192.064 13.6736 188.618 14.5853C187.122 14.9811 185.92 16.5266 184.452 16.8202C183.526 17.0052 183.915 17.1376 183.148 16.4508C182.661 16.0151 182.2 15.211 181.75 14.6945C179.163 11.7248 176.606 8.55542 173.44 6.17852C167.764 1.91649 160.219 -0.0965167 153.176 0.00355243ZM168.874 58.8817C168.202 57.3079 166.969 60.1154 166.604 60.5849C165.883 61.5135 164.185 62.236 164.258 63.6057C164.379 65.8669 167.461 65.4475 168.489 64.2679C169.659 62.9249 169.536 60.4359 168.874 58.8817ZM146.977 48.1754C145.314 50.7666 147.34 53.5636 148.655 55.857C149.912 58.0498 151.079 60.5285 152.543 62.59C154.972 66.0127 160.257 62.3101 160.414 58.7924C160.534 56.0996 158.626 57.2718 157.402 58.2776C156.142 59.3134 155.545 59.5714 154.223 58.44C151.566 56.163 150.372 52.3556 148.535 49.4728C148.171 48.9013 147.511 48.5575 146.977 48.1754ZM142.237 49.0086C141.808 50.2617 142.707 53.5821 140.207 53.2501C138.825 53.0668 138.53 51.0842 137.804 50.2189C135.361 47.31 136.11 52.8117 136.749 54.1887C138.156 57.2236 142.093 59.3146 144.046 55.4645C144.772 54.0323 144.769 52.2247 144.4 50.6851C144.199 49.8466 143.028 46.6946 142.237 49.0086ZM164.534 43.0738C164.756 44.5359 166.13 47.4489 164.452 48.4948C162.976 49.4155 160.405 47.4162 159.268 46.5813C158.086 45.7138 155.409 43.2252 155.304 46.3221C155.251 47.9008 156.831 49.7949 157.959 50.7043C160.364 52.6439 165.363 54.3836 167.136 50.733C168.102 48.7443 167.574 45.9132 166.935 43.9092C166.418 42.285 164 39.5423 164.534 43.0738ZM132.98 35.0691C132.001 36.206 129.681 38.7532 130.943 40.3724C132.418 42.2649 134.815 38.7926 135.76 37.8262C136.611 36.9556 138.402 34.4765 137.638 33.1615C136.374 30.9855 133.84 34.0709 132.98 35.0691ZM148.369 30.1736C145.169 32.2584 149.376 33.7596 151.199 33.9463C153.405 34.1712 156.226 34.3205 158.252 33.238C161.124 31.7035 160.167 29.3857 157.383 28.8308C154.528 28.2623 150.852 28.5554 148.369 30.1736ZM189.972 23.5367C187.619 23.9946 184.931 24.5906 184.129 27.1563C183.302 29.8079 184.491 30.6879 186.895 30.0909C189.119 29.5385 192.441 28.9825 193.698 26.81C195.2 24.2145 192.154 23.1126 189.972 23.5367Z" fill="black"/>
<path fill-rule="evenodd" clip-rule="evenodd" d="M319.463 80.5128C320.253 83.0632 324.25 84.7548 326.244 86.3051C333.216 91.7294 340.029 97.3769 346.333 103.568C349.605 106.781 352.081 110.667 354.918 114.241C355.61 115.113 356.837 117.067 358.194 116.883C359.684 116.682 359.985 114.117 359.938 112.997C359.775 109.176 356.285 105.486 353.797 102.855C350.998 99.8967 348.005 97.0139 344.948 94.3201C341.583 91.3548 337.931 88.8058 334.21 86.3102C330.556 83.8598 327.052 81.0287 323.252 78.8091C321.462 77.7637 318.489 77.3659 319.463 80.5128ZM75.7401 56.2911C72.8297 56.3829 69.9898 57.3375 67.2452 58.2236C61.2076 60.1734 55.4574 62.8779 49.7872 65.7047C39.8462 70.6596 30.2797 76.6548 21.5106 83.4713C19.6775 84.8958 17.7982 86.0502 15.805 87.2152C14.5291 87.9614 12.7102 88.8719 12.2187 90.3927C10.9703 94.2587 17.2718 90.3785 18.1661 89.8234L19.424 89.0434C38.0818 77.4798 56.718 66.2446 77.8225 59.6132C78.9468 59.2598 79.2964 58.2571 78.7067 57.2629C78.0672 56.1857 76.8213 56.2572 75.7401 56.2911ZM320.313 64.3823C320.447 65.5594 321.781 65.8272 322.68 66.205C326.035 67.6144 329.474 68.8163 332.82 70.249C339.031 72.9081 344.734 76.767 351.217 78.785C352.698 79.247 352.917 77.7519 352.52 76.7345C352.078 75.599 350.752 74.8018 349.792 74.145C347.024 72.2487 343.885 70.8855 340.811 69.5684C337.764 68.2615 334.626 67.2731 331.501 66.1776C328.597 65.1592 325.227 63.264 322.108 63.124L321.972 63.1174C320.98 63.0673 320.155 63.0002 320.313 64.3823ZM70.4429 46.4998C73.4101 45.6651 70.6068 43.7868 68.8435 43.9187C66.8763 44.0661 64.9749 44.9949 63.1094 45.5551C57.4057 47.2676 52.1188 49.1406 46.7904 51.7988C45.9957 52.1957 42.4949 54.0771 44.8106 54.9102C46.4155 55.4873 50.1637 53.0109 51.5416 52.4168C57.5969 49.8059 64.1034 48.2825 70.4429 46.4998Z" fill="black"/>
<path fill-rule="evenodd" clip-rule="evenodd" d="M188.724 52.58C188.353 51.4918 183.766 39.5963 185.561 39.2376C187.463 38.8572 190.005 45.7589 190.557 47.0058C192.595 51.6112 193.801 56.5525 194.747 61.4924C195.405 64.9319 195.983 68.4555 195.753 71.9721C195.576 74.6745 194.459 75.0836 192.62 76.7396C192.62 68.5311 191.373 60.3492 188.724 52.58Z" fill="black"/>
</svg>
