<svg width="80" height="80" viewBox="0 0 80 80" fill="none" xmlns="http://www.w3.org/2000/svg">
<circle cx="40" cy="40" r="40" fill="#F7CCD5"/>
<path d="M56.4924 38.2462C56.4924 50.8821 40.2462 61.7129 40.2462 61.7129C40.2462 61.7129 24 50.8821 24 38.2462C24 33.9374 25.7116 29.8051 28.7584 26.7584C31.8051 23.7116 35.9374 22 40.2462 22C44.5549 22 48.6872 23.7116 51.734 26.7584C54.7807 29.8051 56.4924 33.9374 56.4924 38.2462Z" stroke="#FF5678" stroke-width="3" stroke-linecap="round" stroke-linejoin="round"/>
<path d="M40.2462 43.6616C43.237 43.6616 45.6616 41.237 45.6616 38.2462C45.6616 35.2553 43.237 32.8308 40.2462 32.8308C37.2553 32.8308 34.8308 35.2553 34.8308 38.2462C34.8308 41.237 37.2553 43.6616 40.2462 43.6616Z" stroke="#FF5678" stroke-width="3" stroke-linecap="round" stroke-linejoin="round"/>
</svg>
