<svg width="448" height="336" viewBox="0 0 448 336" fill="none" xmlns="http://www.w3.org/2000/svg">
<path fill-rule="evenodd" clip-rule="evenodd" d="M323.016 247.637C321.039 249.922 318.121 251.619 315.882 253.708C313.531 255.903 310.979 257.821 308.637 259.989C298.306 247.363 284.154 239.62 271.894 229.142C266.081 224.175 261.799 217.437 258.665 210.522C257.059 206.977 255.872 203.328 254.943 199.551C254.525 197.85 254.116 196.155 253.842 194.431C253.511 192.343 253.425 192.165 252.017 190.535C251.41 189.834 250.236 187.784 249.048 188.01C248.048 188.2 246.22 191.243 245.588 191.995C242.55 195.61 239.605 199.335 236.406 202.81C231.513 208.127 227.058 213.36 222.514 218.996C213.22 230.526 203.194 241.38 193.078 252.229C192.327 253.034 190.578 255.393 189.5 255.711C188.189 256.096 186.059 254.488 184.739 253.59C181.552 251.42 179.041 248.735 176.317 246.047C171.002 240.801 167.403 233.436 164.982 226.429C163.532 222.235 162.59 217.887 161.094 213.707C160.471 211.965 159.058 209.824 159.775 208.307C159.989 207.854 161.348 206.652 161.828 206.56C162.395 206.452 163.34 207.229 163.537 207.175C165.418 206.66 164.375 204.691 165.494 203.631C166.128 203.03 169.355 203.118 170.318 202.788C173.84 201.58 177 199.275 180.33 197.899C194.27 192.14 208.38 186.537 220.414 177.132C223.535 174.694 225.609 172.861 229.333 171.285C233.097 169.692 236.88 168.271 240.72 166.881C244.108 165.655 247.514 164.505 251.014 163.626C254.798 162.675 260.167 161.47 263.948 162.695C271.374 165.099 273.772 171.217 276.729 177.671C280.73 186.404 285.567 194.667 290.812 202.705C300.9 218.17 313.17 232.047 323.016 247.637Z" fill="#FF5678"/>
<path fill-rule="evenodd" clip-rule="evenodd" d="M99.3825 110.919C98.9739 110.712 95.7836 112.01 95.2481 112.209C93.1092 113.003 91.0945 114.321 89.0794 115.394C90.6238 117.273 92.1686 119.153 93.7125 121.033C95.2263 117.32 97.1718 114.256 99.3825 110.919ZM100.436 134.021C99.9101 134.08 104.346 144.741 104.864 145.938C106.75 150.292 108.729 154.603 110.639 158.945C112.49 163.154 114.837 167.025 117.202 170.956C119.225 174.319 121.306 179.536 124.358 182.027C122.431 173.479 122.685 163.65 117.158 156.473C111.43 149.032 105.766 141.767 100.436 134.021ZM323.015 248.016C314.455 234.46 303.739 222.468 294.812 209.154C289.814 201.699 284.949 194.149 280.741 186.213C277.681 180.441 275.779 172.205 271.052 167.792C268.969 165.848 266.743 163.945 263.948 163.074C260.123 161.882 254.856 163.063 251.014 164.005C243.853 165.761 236.858 168.488 230.076 171.351C223.196 174.255 217.326 179.472 211.11 183.663C204.442 188.16 197.225 191.435 189.754 194.303C183.249 196.8 177.462 200.384 170.992 202.897C169.703 203.398 167.072 203.324 165.99 203.978C164.825 204.681 165.284 206.757 163.869 207.523C163.23 207.869 163.018 206.616 162.528 206.636C161.928 206.661 161.382 207.365 160.804 207.81C158.453 209.624 159.894 210.834 160.825 213.331C163.86 221.465 165.491 229.74 169.752 237.419C173.255 243.731 178.269 249.387 184.173 253.566C185.071 254.202 187.999 256.666 189.053 256.502C190.001 256.355 191.932 253.832 192.588 253.147C195.56 250.038 198.278 246.694 201.249 243.58C205.84 238.768 210.259 233.827 214.715 228.949C219.887 223.287 224.465 216.871 229.123 210.821C231.266 208.037 234.024 205.77 236.406 203.189C239.609 199.719 242.55 195.988 245.588 192.374C246.507 191.28 248.047 188.483 249.476 188.516C250.477 188.539 252.242 190.896 252.765 191.634C254.711 194.379 254.702 199.337 255.67 202.764C258.032 211.12 262.29 219.282 268.13 225.73C273.938 232.143 281.377 236.703 288.246 241.857C295.687 247.441 302.736 253.156 308.637 260.369C310.979 258.201 313.531 256.282 315.882 254.088C318.122 251.998 321.04 250.302 323.015 248.016ZM212.823 286.368C214.487 286.385 217.305 287.408 218.794 286.792C214.378 281.906 210.322 277.713 204.735 274.132C198.937 270.416 193.158 266.733 187.527 262.769C176.177 254.781 167.83 245.308 163.089 232.006C161.868 228.58 161.051 224.987 160.156 221.466C159.675 219.569 158.717 210.697 157.09 209.931C156.126 209.477 148.872 214.575 147.723 215.21C145.036 216.696 142.338 217.849 139.56 219.011C133.589 221.512 127.433 223.419 121.1 225.011C113.509 226.92 108.337 223.761 103.634 217.794C98.2984 211.024 93.8643 203.386 88.9858 196.277C86.7672 193.043 84.9293 189.815 83.2908 186.248C82.2185 183.915 77.9656 177.619 79.4351 175.132C83.6277 178.324 85.1362 184.671 87.9922 188.945C91.5517 194.272 95.5631 199.294 99.141 204.616C102.15 209.09 105.219 214.513 109.664 217.73C113.574 220.559 117.289 219.69 121.496 218.418C126.596 216.877 131.883 216.117 136.881 214.206C142.289 212.138 147.407 209.204 152.684 206.812C155.144 205.696 158.09 205.062 160.408 203.671C162.406 202.474 162.108 201.841 162.255 199.29C162.426 196.313 162.624 193.335 162.755 190.356C162.844 188.355 161.761 185.641 162.496 184.147C156.505 185.185 150.649 186.576 144.7 187.807C141.443 188.481 138.302 189.314 135.012 189.843C133.757 190.045 132.043 190.039 130.92 190.586C130.024 190.329 129.567 190.492 129.549 191.076C129.507 191.393 129.439 191.706 129.346 192.014C127.509 192.849 126.44 191.057 124.847 189.338C122.881 187.216 121.408 184.826 119.966 182.333C116.741 176.758 113.023 171.515 110.039 165.783C106.997 159.941 104.526 153.685 101.947 147.623C99.5811 142.061 98.0661 136.047 95.4516 130.617C94.2848 128.193 92.806 126.189 91.0792 124.141C89.6543 122.452 87.4619 118.807 85.3339 118.031C84.7713 117.826 83.2978 118.17 82.6586 118.125C81.3846 118.034 80.2493 117.566 78.9456 117.668C76.1228 117.889 73.0454 119.674 70.7897 121.244C72.2474 122.543 75.894 124.122 73.2747 126.463C70.7328 128.735 69.3289 124.659 68.3589 122.873C63.7914 126.624 64.4516 131.796 63.924 137.095C63.6484 139.862 62.9234 142.587 62.4558 145.312C62.1189 147.273 62.3551 149.302 62.2589 151.304C62.0134 156.393 61.502 161.264 61.5261 166.281C61.5532 171.644 61.9185 176.823 62.3477 182.147C63.07 191.11 64.7251 200.077 66.1443 208.969C66.9428 213.967 68.0356 218.824 69.0966 223.741C70.3006 229.322 72.5279 234.609 73.7769 240.176C75.0496 238.558 76.0069 238.55 78.0653 238.764C79.6486 238.929 80.7122 238.552 80.6194 240.75C80.5595 242.175 79.3021 243.264 77.9109 243.513C76.0966 243.837 75.4801 242.932 74.5452 241.558C74.3264 244.16 76.0764 246.881 76.7686 249.422C77.4235 251.831 77.8575 254.191 78.9583 256.496C80.0323 258.745 80.9519 260.963 82.0387 263.191C82.5392 264.215 83.0073 265.256 83.5135 266.278C83.7694 266.796 84.0709 267.509 84.4528 267.945C85.3488 268.967 85.2062 268.472 86.2549 269.054C88.5395 270.324 87.6816 270.007 87.7349 272.628C87.787 275.213 89.1126 277.112 91.2384 278.565C95.7486 281.649 100.197 282.506 105.325 284.064C110.102 285.516 115.134 286.761 120.193 286.733C126.389 286.698 132.503 285.886 138.698 285.804C145.534 285.713 152.435 285.75 159.257 285.987C162.067 286.084 164.676 286.209 167.389 286.926C170.54 287.76 173.587 287.429 176.834 287.303C183.762 287.034 190.928 286.498 197.765 286.449C202.688 286.414 207.882 286.071 212.823 286.368ZM392.455 289.053C393.687 289.704 396.447 289.437 397.685 289.256C399.866 288.938 400.1 288.073 401.484 286.129C403.865 282.78 405.799 279.572 407.201 275.693C409.882 268.268 410.977 260.672 412.155 252.905C413.463 244.275 411.074 235.33 410.219 226.758C410.022 224.792 409.754 222.843 409.443 220.891C409.257 219.725 409.209 215.755 408.441 214.745C406.966 212.804 400.106 214.37 397.408 214.545C389.88 215.037 382.302 215.152 374.777 215.238C370.765 215.283 366.73 215.451 362.758 215.482C360.933 215.497 359.149 215.406 357.319 215.228C356.706 215.169 356.108 215.028 355.491 214.994C353.379 214.877 353.538 214.571 352.992 216.442C352.035 219.718 352.771 223.887 352.52 227.289C352.184 231.833 352.002 236.442 352.086 240.997C352.163 245.205 352.019 249.405 352.176 253.623C352.242 255.369 352.433 256.794 352.893 258.462C353.414 260.348 353.987 264.754 355.285 266.059C355.432 266.208 356.535 265.862 356.828 266.232C357.279 266.802 357.196 268.008 357.506 268.376C358.509 269.569 360.58 269.663 362.083 270.199C366.206 271.67 369.989 273.266 373.875 275.249C377.348 277.02 382.946 278.528 385.034 282.023C385.991 283.625 386.12 285.738 387.001 287.39C388.003 289.273 385.998 288.289 388.453 289.053C389.559 289.397 391.321 289.053 392.455 289.053ZM26.3747 267.756C26.0623 272.105 23.6128 276.247 22.7601 280.522C22.3611 282.524 21.6843 284.492 21.2153 286.482C20.7655 288.391 19.1406 290.652 19.3051 292.541C25.3024 290.404 31.3771 289.867 37.6451 289.291C43.5859 288.745 49.8619 288.527 55.7528 288.525C61.7558 288.521 68.1743 287.935 74.3553 287.844C80.8194 287.749 87.381 287.582 93.7514 286.911C90.4203 284.444 86.2523 282.127 83.7926 278.695C81.1186 274.963 79.73 270.288 77.3771 266.351C72.6556 258.449 69.6539 248.644 67.179 239.767C62.1823 221.846 56.5985 204.256 55.2528 185.667C52.6916 186.979 50.6586 192.068 49.3763 194.602C47.7396 197.837 46.8825 201.344 45.8185 204.783C43.6275 211.865 42.1111 219.209 39.4284 226.225C34.3009 239.635 31.0052 254.084 26.3747 267.756ZM351.924 163.309C353.033 171.324 355.359 179.443 355.448 187.554C355.467 189.339 355.165 191.321 355.537 193.08C355.934 194.959 357.226 196.62 357.972 198.405C359.156 201.239 362.154 207.048 359.263 209.45C359.204 207.171 357.119 204.277 356.068 202.284C354.485 199.281 352.404 196.536 350.688 193.608C347.095 187.479 343.07 181.481 338.44 176.078C333.93 170.815 328.732 166.147 323.95 161.135C322.513 159.629 310.987 145.136 310.529 145.339C314.104 159.126 320.182 171.122 328.499 182.666C332.577 188.325 337.471 192.049 342.436 196.843C346.57 200.836 354.361 205.105 352.932 211.647C359.394 211.026 365.814 210.033 372.335 210.033C371.263 201.78 370.441 193.657 368.527 185.539C366.353 176.322 364.881 166.828 363.042 157.529C361.165 148.035 357.981 138.844 356.001 129.368C354.104 120.294 352.475 111.237 351.085 102.062C349.936 107.146 350.36 112.73 349.952 117.917C349.535 123.216 349.576 128.418 349.714 133.748C349.971 143.649 351.026 153.431 351.924 163.309ZM379.926 116.104C379.963 111.865 380.784 107.685 381.037 103.457C381.115 102.16 382.407 93.3094 381.202 92.8474C380.211 95.0077 379.98 97.7723 379.08 100.039C378.181 102.303 376.978 104.461 376.116 106.741C374.247 111.681 373.602 117.27 373.401 122.522C372.945 134.401 372.71 146.253 373.508 158.132C373.85 163.224 374.113 168.324 374.019 173.426C373.916 179.04 373.057 183.912 374.101 189.48C375.134 194.993 375.783 200.484 376.128 206.078C376.369 210.004 376.466 209.726 380.212 209.45C382.916 209.25 385.647 209.463 388.355 209.34C387.089 194.038 386.882 178.704 384.86 163.461C383.828 155.684 383.8 147.795 382.518 140.047C381.881 136.199 380.812 132.428 380.198 128.574C379.539 124.437 379.863 120.272 379.926 116.104ZM106.004 106.474C113.215 107.098 120.886 109.254 128.278 107.831C127.059 107.337 123.871 106.657 125.306 104.709C126.765 102.728 129.224 105.24 130.679 104.981C131.576 104.821 133.559 101.07 134.112 100.294C135.367 98.5287 135.518 98.2212 137.775 97.7688C139.962 97.3313 140.458 97.8051 140.735 95.6312C141.053 93.1313 140.188 90.3208 140.273 87.7645C140.458 82.2612 142.233 77.4351 143.885 72.2573C136.865 73.7846 130 75.5959 122.822 76.5802C119.753 77.0011 114.979 77.9719 112.191 75.8859C111.466 75.3434 111.582 74.6111 110.989 73.9824C109.994 72.9276 108.149 71.8364 106.738 71.5359C98.0547 69.6874 97.2077 82.0656 101.559 86.6974C102.649 87.8581 104.165 88.4312 105.281 89.4948C106.771 90.9132 106.893 92.4072 107.111 94.5724C107.518 98.6324 106.964 102.708 105.232 106.422L106.004 106.474ZM211.374 164.911C213.937 165.397 216.612 165.286 219.182 165.701C220.095 165.849 222.833 166.363 223.636 165.829C224.861 165.014 225.297 162.025 225.877 160.633C226.896 158.184 228.339 156.048 229.311 153.555C233.283 143.371 236.988 133.146 241.792 123.31C239.951 122.831 238.537 122.812 236.681 122.565C234.748 122.307 232.995 121.164 231.151 120.673C229.397 120.206 227.561 120.325 225.824 119.782C224.867 119.483 224.046 118.819 223.103 118.586C221.599 118.217 219.844 118.001 218.95 118.988C218.033 120 217.712 122.776 217.213 124.084C215.885 127.567 214.342 130.93 213.229 134.493C212.225 137.708 211.271 140.888 210.388 144.132C209.454 147.556 207.614 150.378 206.493 153.649C205.64 156.139 204.836 158.685 204.708 161.339C204.585 163.93 204.208 164.095 206.798 164.509C208.106 164.717 210.144 165.494 211.374 164.911ZM380.026 286.149C380.693 286.46 381.323 286.419 381.913 286.025C376.125 283.58 370.495 280.189 364.457 278.512C358.792 276.939 353.287 275.06 347.83 273.122C343.396 271.548 339.409 270.323 335.401 267.552C332.967 265.871 330.806 263.98 329.133 261.522C327.272 258.786 326.858 254.893 324.842 252.429C322.12 255.417 318.924 257.68 315.704 260.055C314.59 260.877 311.918 262.668 311.537 263.939C311.056 265.543 312.344 267.078 312.981 268.702C314.613 272.86 315.41 277.016 316.295 281.339C316.65 283.071 317.416 285.675 318.839 286.401C320.135 287.061 323.888 286.582 325.5 286.459C333.914 285.822 342.178 285.169 350.641 285.749C360.219 286.406 370.473 286.86 380.026 286.149ZM396.83 209.1C398.359 209.105 399.852 208.914 401.376 208.914C400.496 204.808 402.552 199.495 403.281 195.397C404.096 190.812 404.717 186.071 405.261 181.45C406.407 171.716 406.927 162.1 406.942 152.295C406.956 142.807 408.683 134.136 411.102 125.015C413.7 115.22 417.954 106.411 421.472 96.9638C417.613 99.0034 415.478 103.776 413.45 107.425C410.887 112.038 409.18 117.147 408.134 122.326C406.115 132.317 403.9 142.338 401.57 152.313C399.144 162.699 397.718 173.18 394.939 183.481C393.584 188.504 391.741 194.684 391.639 199.865C391.596 202.008 390.95 206.495 391.922 208.357C392.83 210.098 394.838 209.278 396.83 209.1ZM166.026 196.214C165.946 197.28 165.869 198.295 165.68 199.348C167.798 199.328 170.48 197.131 172.297 196.144C174.51 194.942 176.725 193.617 178.889 192.409C183.068 190.076 187.811 188.539 192.272 186.623C197.397 184.421 202.108 181.761 207.008 179.111C208.72 178.185 221.024 172.852 220.817 171.395C218.116 171.305 215.415 171.215 212.713 171.126C210.398 171.049 206.811 171.572 204.593 170.856C203.379 170.464 202.015 169.02 201.557 167.889C201.103 166.77 202.123 161.622 201.53 161.294C198.507 164.381 196.606 168.483 193.903 171.813C190.916 175.493 187.057 177.642 182.803 179.598C178.105 181.758 173.243 183.43 168.443 185.282C166.418 186.062 166.458 186.509 166.282 188.729C166.085 191.21 166.106 193.726 166.026 196.214ZM410.128 289.559C415.22 290.105 420.438 289.794 425.57 290.22C427.437 290.375 430.026 290.606 428.148 293.112C426.965 294.69 423.175 294.184 421.456 294.293C416.841 294.587 411.954 294.429 407.329 294.361C406.355 294.347 405.279 294.057 404.294 294.122C403.158 294.197 401.797 295.014 400.762 295.008C400.124 295.004 399.895 294.331 399.344 294.269C398.145 294.135 396.946 294.036 395.737 294.037C377.454 294.041 359.422 293.673 341.184 293.653C332.464 293.644 323.603 293.494 314.886 293.084C313.055 292.998 302.631 293.372 302.919 290.076C303.068 288.379 306.47 288.14 307.712 287.959C308.632 287.826 309.586 287.847 310.508 287.797C312.957 287.666 314.03 288.255 313.513 285.576C311.554 275.412 308.042 267.012 300.54 259.704C294.406 253.728 287.019 248.307 280.07 243.317C271.634 237.258 264.789 230.885 259.78 221.613C256.855 216.199 254.407 210.663 252.904 204.676C252.363 202.523 252.35 200.073 251.688 197.997C251.178 196.398 250.016 195.279 249.332 193.623C240.938 207.643 229.813 219.373 219.612 232.014C214.738 238.054 209.178 243.79 203.354 249.044C201.626 250.603 200.013 252.231 198.4 253.909C197.051 255.313 194.909 256.561 193.77 258.119C192.677 259.614 192.946 259.542 194.609 260.729C196.808 262.298 199.231 263.601 201.465 265.13C205.035 267.576 208.932 269.642 212.124 272.584C215.576 275.767 218.592 279.453 221.61 283.041C223.621 285.433 226.26 288.502 226.765 291.526C226.933 292.527 227.569 295.001 226.73 295.734C226.012 296.36 226.084 296.123 225.194 295.741C224.026 295.24 223.683 294.092 222.257 293.544C218.609 292.144 214.194 292.625 210.398 292.608C206.6 292.591 202.771 293.018 198.975 293.002C190.308 292.966 181.825 293.668 173.159 294.045C163.956 294.445 154.64 293.485 145.467 293.621C138.671 293.722 131.694 293.214 124.71 293.591C121.118 293.785 117.59 293.336 114.087 293.285C109.501 293.219 104.792 293.843 100.167 293.932C92.575 294.079 85.0763 294.078 77.4384 294.26C61.0094 294.653 44.6692 295.059 28.2306 295.32C26.0378 295.354 23.6373 295.28 21.4703 295.527C19.1704 295.789 20.3578 296.278 18.7797 297.106C14.3618 299.423 15.3821 290.833 15.4879 289.143C16.0558 280.089 18.3544 271.208 21.1168 262.612C23.7374 254.459 25.865 245.926 28.0844 237.597C30.5139 228.481 33.6792 219.738 36.5536 210.712C39.4988 201.462 41.8968 191.852 47.2461 183.653C48.4645 181.785 49.7236 179.776 51.6836 178.599C53.8808 177.279 53.9753 178.05 53.9735 175.634C53.9722 173.359 54.1122 170.32 53.5754 168.149C53.0902 166.188 53.165 167.351 52.0726 165.942C51.1836 164.796 50.2534 164.013 49.6156 162.622C45.6973 166.595 36.7281 164.498 32.9424 161.637C28.3089 158.136 24.7796 152.228 23.4863 146.602C22.4477 142.084 23.7221 133.471 28.7228 131.299C31.1605 130.24 40.1144 129.439 40.4727 125.987C40.6573 124.205 37.506 121.7 36.7789 120.167C35.4314 117.329 34.1373 113.553 33.7628 110.442C33.0313 104.368 35.7884 97.5772 40.1804 93.4747C48.2374 85.9489 62.4138 82.0866 72.7777 86.8615C70.5876 78.4952 69.2654 71.2777 70.3684 62.575C71.3186 55.0775 75.7422 50.8828 81.8291 47.1483C92.2163 40.7748 106.341 38.2592 118.218 40.1124C120.917 40.5337 123.507 41.4372 126.006 42.156C129.637 43.2003 133.983 42.8525 137.41 44.5491C139.896 45.7789 141.783 48.2289 143.966 49.8647C146.514 51.7744 148.632 54.6247 150.402 57.2607C154.189 62.8974 152.709 73.3589 149.54 79.0171C148.861 80.2307 148.021 81.2523 146.897 82.0805C145.726 82.9424 143.941 83.2106 143.338 84.3284C141.793 87.1918 143.283 93.3907 143.49 96.4856C143.73 100.079 141.913 102.779 137.838 103.065C135.481 103.231 135.405 101.864 134.277 104.678C133.545 106.502 132.881 108.489 131.825 110.161C129.648 113.607 125.662 113.271 122.031 113.178C117.827 113.069 113.687 112.405 109.481 111.986C110.592 115.545 113.632 118.307 115.531 121.478C118.098 125.766 119.644 129.321 120.061 134.317C120.381 138.156 119.69 141.187 117.063 144.044C115.976 145.227 115.012 145.285 115.282 146.649C115.447 147.481 116.886 148.854 117.395 149.518C118.742 151.275 120.306 152.888 121.492 154.764C126.054 161.984 127.401 172.989 127.413 181.394C127.413 181.779 127.619 182.599 127.449 182.997C127.323 183.292 126.365 184.224 126.351 184.304C126.164 185.385 127.218 187.237 128.871 187.42C130.607 187.612 133.788 186.163 135.403 185.687C137.988 184.925 140.622 184.363 143.201 183.58C147.367 182.316 151.513 181.308 155.747 180.318C157.661 179.871 159.585 179.498 161.505 179.079C163.692 178.603 164.707 177.683 165.836 179.908C166.804 181.817 166.202 182.163 168.548 181.201C170.877 180.245 173.152 179.061 175.426 177.982C179.436 176.08 184.212 174.384 187.671 171.576C193.441 166.89 195.578 159.429 201.1 154.458C202.638 153.074 203.556 153.049 204.528 151.132C205.569 149.079 206.105 146.447 206.652 144.24C207.611 140.374 208.293 136.495 209.162 132.632C210.245 127.821 212.585 123.463 214.293 118.874C214.958 117.086 215.303 114.813 216.376 113.206C216.661 112.78 217.204 112.54 217.426 112.187C218.189 110.976 218.181 110.644 218.379 109.188C219.304 102.382 223.367 105.962 227.805 107.523C229.676 108.18 238.557 112.445 235.165 115.281C239.208 116.454 245.683 115.816 245.628 121.609C245.6 124.578 243.825 127.753 242.872 130.532C242.025 132.999 241.207 135.476 240.348 137.939C238.464 143.334 236.179 148.569 234.341 153.981C233.503 156.448 232.812 158.972 231.646 161.3C230.617 163.354 228.127 165.617 227.716 167.863C238.489 163.267 248.455 156.622 260.512 157.046C265.792 157.231 270.584 159.45 273.5 164.093C277.155 169.911 279.561 176.426 283.134 182.299C296.132 203.661 311.636 223.069 325.905 243.547C327.001 245.121 328.411 246.609 328.791 248.554C329.039 249.822 328.558 251.092 328.855 252.31C329.473 254.844 332.591 258.006 334.706 259.462C338.76 262.252 345.35 266.188 350.409 265.84C347.234 258.21 347.277 249.85 347.424 241.711C347.564 233.98 348.4 226.311 349.392 218.659C349.616 216.928 349.812 215.323 350.309 213.646C350.88 211.721 351.664 211.903 349.954 210.173C347.322 207.508 344.191 205.316 341.538 202.618C335.799 196.785 329.917 192.212 325.401 185.246C321.105 178.62 316.574 171.803 313.394 164.547C310.121 157.077 308.812 149.1 307.187 141.19C306.528 137.98 304.123 134.396 304.606 131.044C305.217 126.808 307.181 129.893 307.981 132.172C310.422 139.132 316.136 145.36 320.869 150.957C325.982 157.004 332.236 162.062 337.574 167.933C343.386 174.326 347.367 181.674 352.536 188.499C352.536 180.029 349.644 171.404 348.461 163.025C347.42 155.651 347.093 148.252 346.435 140.845C344.941 124.02 346.232 106.699 348.329 89.994C349.326 82.0604 348.761 74.3136 348.791 66.3528C348.8 63.8192 347.752 57.9799 349.088 55.7316C351.648 51.4253 353.141 60.8416 353.271 62.2456C354.045 70.6088 352.656 78.8789 353.366 87.2062C354.107 95.9024 355.715 104.354 357.084 112.95C358.566 122.257 360.98 131.354 363.291 140.482C365.717 150.067 367.758 159.851 370.455 169.359C371.183 166.37 370.162 162.699 369.961 159.655C369.673 155.299 369.11 150.943 369.062 146.575C368.984 139.615 368.93 132.526 369.324 125.598C369.712 118.77 369.594 111.614 371.689 105.036C372.683 101.913 374.14 98.8669 375.567 95.9256C377.326 92.2987 377.948 88.7821 378.923 84.9247C379.757 81.6211 380.979 78.4046 381.535 75.035C381.881 72.9394 382.845 66.7531 385.245 71.4401C386.638 74.1604 386.036 78.1933 386.074 81.1158C386.124 84.8626 385.551 88.5056 385.463 92.2366C385.292 99.5569 385.169 106.868 384.623 114.176C384.05 121.844 384.55 128.715 386.009 136.27C387.605 144.539 388.073 152.827 388.9 161.198C389.326 165.52 390.046 169.818 390.393 174.146C390.577 176.438 389.634 183.01 391.277 184.643C391.436 180.673 392.573 176.7 393.435 172.831C394.457 168.248 394.87 163.431 395.623 158.782C396.842 151.251 399.208 144.059 400.773 136.612C404 121.262 406.681 101.533 420.203 91.485C421.972 90.1703 423.917 89.1999 425.829 88.118C426.912 87.5055 428.521 85.9209 429.76 85.6444C431.112 85.3425 431.676 85.577 432.224 87.1459C432.989 89.3329 431.591 90.3545 430.286 91.9431C425.769 97.4398 423.84 104.486 421.051 110.933C414.666 125.694 411.84 141.264 411.808 157.221C411.791 165.574 411.215 173.63 410.324 181.933C409.365 190.868 408.103 200.318 405.388 208.914C408.111 209.524 411.065 208.614 411.804 211.779C411.985 212.556 411.657 213.475 411.858 214.487C412.053 215.471 412.523 216.449 412.801 217.416C413.375 219.417 413.678 221.391 413.957 223.446C415.037 231.385 416.89 238.937 417.087 246.987C417.269 254.429 415.812 261.968 414.47 269.267C413.117 276.618 409.239 282.884 406.186 289.532C407.5 289.532 408.814 289.545 410.128 289.559Z" fill="black"/>
<path fill-rule="evenodd" clip-rule="evenodd" d="M237.315 272.661C235.867 273.071 228.876 273.843 228.877 276.037C228.878 277.352 235.86 277.327 237.095 277.47C237.169 275.867 237.242 274.264 237.315 272.661ZM252.746 287.798C256.775 288.564 262.243 287.487 264.818 283.935C266.022 282.276 266.593 279.752 266.985 277.772C267.359 275.884 268.514 271.174 267.728 269.405C266.763 267.233 257.507 269.503 254.812 269.753C250.109 270.187 245.246 270.238 240.54 269.931C240.54 274.79 240.292 279.526 243.15 283.708C245.211 286.725 249.083 287.437 252.746 287.798ZM251.936 293.8C247.559 292.198 242.964 293.239 240.113 288.54C239.39 287.348 238.781 286.066 238.344 284.741C238.13 284.161 237.963 283.567 237.845 282.959C238.068 281.649 237.588 281.279 236.406 281.85C234.086 281.399 231.542 282.992 229.098 282.522C223.171 281.384 224.247 272.893 228.225 269.954C229.011 269.373 229.796 269.212 230.695 268.925C232.678 268.293 233.751 268.999 235.565 268.819C237.03 268.675 237.433 267.138 239.008 266.461C240.039 266.018 241.471 266.052 242.555 266.008C248.228 265.774 253.92 265.777 259.63 265.407C262.293 265.235 265.168 265.656 267.777 265.201C268.998 264.988 268.823 264.175 269.98 264.888C271.177 265.627 270.66 268.357 270.6 269.446C270.25 275.743 269.875 282.497 266.502 288.002C263.416 293.039 257.343 293.554 251.936 293.8Z" fill="black"/>
<path fill-rule="evenodd" clip-rule="evenodd" d="M20.7667 295.535C22.175 295.519 23.5829 295.504 24.9864 295.49C23.5763 295.505 22.1715 295.52 20.7667 295.535Z" fill="black"/>
<path fill-rule="evenodd" clip-rule="evenodd" d="M411.816 161.276C411.814 159.923 411.811 158.571 411.808 157.22C411.81 158.574 411.813 159.925 411.816 161.276Z" fill="black"/>
<path fill-rule="evenodd" clip-rule="evenodd" d="M53.5796 166.831C53.5752 168.149 53.5709 169.467 53.5665 170.782C53.5704 169.463 53.5748 168.147 53.5796 166.831Z" fill="black"/>
<path fill-rule="evenodd" clip-rule="evenodd" d="M170.641 294.041C171.762 294.042 172.882 294.044 173.997 294.047C172.875 294.046 171.759 294.043 170.641 294.041Z" fill="black"/>
<path fill-rule="evenodd" clip-rule="evenodd" d="M102.611 293.772C103.732 293.775 104.852 293.779 105.967 293.783C104.845 293.78 103.728 293.776 102.611 293.772Z" fill="black"/>
<path fill-rule="evenodd" clip-rule="evenodd" d="M347.572 239.045C347.523 239.934 347.473 240.823 347.424 241.711C347.474 240.82 347.523 239.933 347.572 239.045Z" fill="black"/>
<path fill-rule="evenodd" clip-rule="evenodd" d="M410.128 289.559C409.262 289.55 408.396 289.541 407.531 289.532C408.4 289.169 409.266 289.185 410.128 289.559Z" fill="black"/>
<path fill-rule="evenodd" clip-rule="evenodd" d="M333.257 293.497C333.878 293.487 334.5 293.478 335.115 293.467C334.492 293.476 333.874 293.487 333.257 293.497Z" fill="black"/>
<path fill-rule="evenodd" clip-rule="evenodd" d="M411.479 172.252C411.495 171.579 411.51 170.907 411.525 170.238C411.51 170.91 411.495 171.581 411.479 172.252Z" fill="black"/>
<path fill-rule="evenodd" clip-rule="evenodd" d="M353.366 87.2064C353.315 86.5129 353.263 85.82 353.212 85.1283C353.263 85.8221 353.315 86.5143 353.366 87.2064Z" fill="black"/>
<path fill-rule="evenodd" clip-rule="evenodd" d="M411.786 163.924C411.794 163.229 411.803 162.534 411.811 161.842C411.803 162.537 411.794 163.231 411.786 163.924Z" fill="black"/>
<path fill-rule="evenodd" clip-rule="evenodd" d="M216.362 292.635C216.914 292.643 217.467 292.651 218.015 292.658C217.461 292.649 216.911 292.642 216.362 292.635Z" fill="black"/>
<path fill-rule="evenodd" clip-rule="evenodd" d="M358.683 293.768C359.223 293.779 359.763 293.79 360.298 293.801C359.756 293.791 359.22 293.779 358.683 293.768Z" fill="black"/>
<path fill-rule="evenodd" clip-rule="evenodd" d="M417.025 244.895C416.986 244.285 416.947 243.676 416.909 243.067C416.948 243.677 416.987 244.286 417.025 244.895Z" fill="black"/>
<path fill-rule="evenodd" clip-rule="evenodd" d="M407.329 294.361C407.768 294.358 408.208 294.356 408.642 294.355C408.201 294.358 407.765 294.36 407.329 294.361Z" fill="black"/>
<path fill-rule="evenodd" clip-rule="evenodd" d="M347.427 293.796C347.862 293.786 348.298 293.775 348.729 293.765C348.292 293.776 347.859 293.786 347.427 293.796Z" fill="black"/>
<path fill-rule="evenodd" clip-rule="evenodd" d="M249.563 293.464C250.043 293.461 250.522 293.458 250.997 293.455C250.516 293.458 250.04 293.461 249.563 293.464Z" fill="black"/>
<path fill-rule="evenodd" clip-rule="evenodd" d="M139.047 293.462C139.503 293.465 139.958 293.468 140.409 293.472C139.952 293.47 139.5 293.466 139.047 293.462Z" fill="black"/>
<path fill-rule="evenodd" clip-rule="evenodd" d="M112.162 293.536C112.627 293.51 113.091 293.483 113.551 293.458C113.085 293.484 112.624 293.51 112.162 293.536Z" fill="black"/>
<path fill-rule="evenodd" clip-rule="evenodd" d="M240.877 116.515C240.186 116.456 239.495 116.396 238.803 116.336C239.495 116.385 240.227 115.975 240.877 116.515Z" fill="black"/>
<path fill-rule="evenodd" clip-rule="evenodd" d="M417.09 289.821C416.409 289.753 415.727 289.684 415.046 289.615C415.728 289.684 416.409 289.753 417.09 289.821Z" fill="black"/>
<path fill-rule="evenodd" clip-rule="evenodd" d="M369.546 120.712C369.501 121.309 369.455 121.907 369.409 122.502C369.455 121.904 369.501 121.308 369.546 120.712Z" fill="black"/>
<path fill-rule="evenodd" clip-rule="evenodd" d="M411.957 145.611C412.004 145.045 412.05 144.479 412.097 143.915C412.05 144.482 412.003 145.046 411.957 145.611Z" fill="black"/>
<path fill-rule="evenodd" clip-rule="evenodd" d="M369.275 129.976C369.226 130.572 369.177 131.168 369.128 131.762C369.177 131.165 369.226 130.57 369.275 129.976Z" fill="black"/>
<path fill-rule="evenodd" clip-rule="evenodd" d="M411.669 168.465C411.664 167.889 411.66 167.313 411.656 166.738C412.028 167.313 412.013 167.887 411.669 168.465Z" fill="black"/>
<path fill-rule="evenodd" clip-rule="evenodd" d="M347.582 251.21C347.576 251.788 347.572 252.366 347.565 252.94C347.184 252.358 347.26 251.783 347.582 251.21Z" fill="black"/>
<path fill-rule="evenodd" clip-rule="evenodd" d="M391.027 184.394C390.96 183.81 390.893 183.225 390.827 182.642C390.894 183.227 390.96 183.811 391.027 184.394Z" fill="black"/>
<path fill-rule="evenodd" clip-rule="evenodd" d="M31.2855 130.744C30.8335 131.341 30.218 130.932 29.6807 131.004C30.2162 130.917 30.7508 130.831 31.2855 130.744Z" fill="black"/>
<path fill-rule="evenodd" clip-rule="evenodd" d="M254.757 265.821C254.186 265.822 253.615 265.822 253.044 265.823C253.616 265.822 254.186 265.821 254.757 265.821Z" fill="black"/>
<path fill-rule="evenodd" clip-rule="evenodd" d="M345.974 133.197C346.028 133.683 346.081 134.169 346.134 134.653C346.081 134.166 346.028 133.682 345.974 133.197Z" fill="black"/>
<path fill-rule="evenodd" clip-rule="evenodd" d="M63.81 84.9667C63.236 84.9781 62.662 84.9895 62.088 85.0008C62.6559 84.6666 63.2281 84.5699 63.81 84.9667Z" fill="black"/>
<path fill-rule="evenodd" clip-rule="evenodd" d="M369.261 138.376C369.224 138.885 369.187 139.394 369.15 139.901C369.187 139.392 369.224 138.884 369.261 138.376Z" fill="black"/>
<path fill-rule="evenodd" clip-rule="evenodd" d="M353.52 75.8649C353.565 75.4007 353.609 74.9365 353.653 74.4749C353.608 74.94 353.565 75.4024 353.52 75.8649Z" fill="black"/>
<path fill-rule="evenodd" clip-rule="evenodd" d="M349.01 74.4108C348.965 74.9144 348.919 75.4184 348.875 75.9202C348.92 75.4157 348.965 74.913 349.01 74.4108Z" fill="black"/>
<path fill-rule="evenodd" clip-rule="evenodd" d="M99.6811 40.7707C99.0971 40.8416 98.513 40.9125 97.9294 40.9829C98.5134 40.912 99.0971 40.8416 99.6811 40.7707Z" fill="black"/>
<path fill-rule="evenodd" clip-rule="evenodd" d="M57.4957 85.3677C56.8964 85.429 56.297 85.4902 55.6981 85.5515C56.2974 85.4902 56.8968 85.429 57.4957 85.3677Z" fill="black"/>
<path fill-rule="evenodd" clip-rule="evenodd" d="M385.942 86.8439C385.978 86.3753 386.015 85.9063 386.051 85.4404C386.015 85.9094 385.978 86.3766 385.942 86.8439Z" fill="black"/>
<path fill-rule="evenodd" clip-rule="evenodd" d="M37.8232 164.174C38.1684 164.18 38.5131 164.185 38.8531 164.19C38.5066 164.185 38.1649 164.18 37.8232 164.174Z" fill="black"/>
<path fill-rule="evenodd" clip-rule="evenodd" d="M349.027 222.006C348.993 222.525 348.958 223.043 348.923 223.561C348.958 223.042 348.993 222.524 349.027 222.006Z" fill="black"/>
<path fill-rule="evenodd" clip-rule="evenodd" d="M384.239 121.03C384.225 120.53 384.212 120.03 384.197 119.532C384.212 120.032 384.226 120.531 384.239 121.03Z" fill="black"/>
<path fill-rule="evenodd" clip-rule="evenodd" d="M114.384 39.5875C113.852 39.5875 113.319 39.5879 112.788 39.5879C113.32 39.2222 113.852 39.2314 114.384 39.5875Z" fill="black"/>
<path fill-rule="evenodd" clip-rule="evenodd" d="M256.533 157.285C255.949 157.3 255.366 157.315 254.784 157.33C255.357 156.925 255.94 156.915 256.533 157.285Z" fill="black"/>
<path fill-rule="evenodd" clip-rule="evenodd" d="M307.497 292.615C307.842 292.622 308.188 292.629 308.53 292.637C308.182 292.631 307.839 292.622 307.497 292.615Z" fill="black"/>
<path fill-rule="evenodd" clip-rule="evenodd" d="M320.515 293.222C320.86 293.21 321.206 293.198 321.546 293.186C321.2 293.198 320.857 293.21 320.515 293.222Z" fill="black"/>
<path fill-rule="evenodd" clip-rule="evenodd" d="M116.774 293.462C117.134 293.471 117.494 293.481 117.849 293.489C117.488 293.48 117.131 293.471 116.774 293.462Z" fill="black"/>
<path fill-rule="evenodd" clip-rule="evenodd" d="M416.726 239.109C416.675 238.615 416.624 238.12 416.572 237.628C416.624 238.123 416.675 238.616 416.726 239.109Z" fill="black"/>
<path fill-rule="evenodd" clip-rule="evenodd" d="M369.702 155.767C369.743 156.238 369.784 156.709 369.824 157.177C369.783 156.705 369.743 156.236 369.702 155.767Z" fill="black"/>
<path fill-rule="evenodd" clip-rule="evenodd" d="M387.798 147.677C387.742 147.177 387.686 146.678 387.631 146.18C387.687 146.68 387.742 147.178 387.798 147.677Z" fill="black"/>
<path fill-rule="evenodd" clip-rule="evenodd" d="M119.695 293.76C120.058 293.755 120.421 293.749 120.781 293.744C120.416 293.75 120.055 293.755 119.695 293.76Z" fill="black"/>
<path fill-rule="evenodd" clip-rule="evenodd" d="M251.936 293.8C252.29 293.784 252.642 293.768 252.992 293.752C252.638 293.768 252.287 293.784 251.936 293.8Z" fill="black"/>
<path fill-rule="evenodd" clip-rule="evenodd" d="M384.845 111.194C384.829 110.688 384.813 110.182 384.797 109.677C384.813 110.183 384.829 110.689 384.845 111.194Z" fill="black"/>
<path fill-rule="evenodd" clip-rule="evenodd" d="M85.262 294.091C85.6164 294.088 85.9703 294.085 86.3199 294.083C85.9638 294.086 85.6133 294.089 85.262 294.091Z" fill="black"/>
<path fill-rule="evenodd" clip-rule="evenodd" d="M384.697 294.086C385.061 294.089 385.425 294.093 385.785 294.097C385.418 294.094 385.058 294.09 384.697 294.086Z" fill="black"/>
<path fill-rule="evenodd" clip-rule="evenodd" d="M392.561 294.043C392.913 294.068 393.264 294.093 393.611 294.117C393.258 294.092 392.91 294.068 392.561 294.043Z" fill="black"/>
<path fill-rule="evenodd" clip-rule="evenodd" d="M395.737 294.036C396.095 294.047 396.453 294.058 396.807 294.066C396.448 294.055 396.092 294.046 395.737 294.036Z" fill="black"/>
<path fill-rule="evenodd" clip-rule="evenodd" d="M412.045 149.683C412.021 149.186 411.998 148.687 411.975 148.191C411.999 148.689 412.021 149.186 412.045 149.683Z" fill="black"/>
<path fill-rule="evenodd" clip-rule="evenodd" d="M171.712 287.51C172.801 287.454 173.89 287.397 174.98 287.34C173.89 287.397 172.801 287.453 171.712 287.51Z" fill="black"/>
<path fill-rule="evenodd" clip-rule="evenodd" d="M106.004 106.474C106.949 106.556 107.895 106.638 108.839 106.72C107.894 106.638 106.949 106.556 106.004 106.474Z" fill="black"/>
<path fill-rule="evenodd" clip-rule="evenodd" d="M372.943 147.578C372.973 148.48 373.003 149.382 373.032 150.281C373.003 149.379 372.973 148.479 372.943 147.578Z" fill="black"/>
<path fill-rule="evenodd" clip-rule="evenodd" d="M392.455 289.053C393.442 289.113 394.429 289.172 395.416 289.232C394.422 289.277 393.414 289.56 392.455 289.053Z" fill="black"/>
<path fill-rule="evenodd" clip-rule="evenodd" d="M386.615 182.344C386.622 181.483 386.629 180.623 386.636 179.764C386.629 180.625 386.622 181.485 386.615 182.344Z" fill="black"/>
<path fill-rule="evenodd" clip-rule="evenodd" d="M384.088 209.382C384.954 209.393 385.821 209.405 386.686 209.416C385.82 209.404 384.954 209.393 384.088 209.382Z" fill="black"/>
<path fill-rule="evenodd" clip-rule="evenodd" d="M166.089 194.252C166.067 194.908 166.046 195.564 166.025 196.217C166.047 195.56 166.068 194.907 166.089 194.252Z" fill="black"/>
<path fill-rule="evenodd" clip-rule="evenodd" d="M398.501 166.482C398.465 167.135 398.43 167.788 398.396 168.437C398.431 167.784 398.466 167.133 398.501 166.482Z" fill="black"/>
<path fill-rule="evenodd" clip-rule="evenodd" d="M380.026 286.149C380.656 286.106 381.286 286.064 381.914 286.023C381.44 286.402 380.964 286.434 380.026 286.149Z" fill="black"/>
<path fill-rule="evenodd" clip-rule="evenodd" d="M375.809 200.837C375.853 201.54 375.896 202.244 375.939 202.945C375.896 202.241 375.853 201.539 375.809 200.837Z" fill="black"/>
<path fill-rule="evenodd" clip-rule="evenodd" d="M140.253 89.7976C140.259 89.1182 140.266 88.4387 140.273 87.7619C140.266 88.4422 140.26 89.1199 140.253 89.7976Z" fill="black"/>
<path fill-rule="evenodd" clip-rule="evenodd" d="M376.572 209.524L378.92 209.473C378.145 209.847 377.363 209.86 376.572 209.524Z" fill="black"/>
<path fill-rule="evenodd" clip-rule="evenodd" d="M398.235 214.538C397.681 214.543 397.127 214.547 396.578 214.553C397.133 214.548 397.684 214.543 398.235 214.538Z" fill="black"/>
<path fill-rule="evenodd" clip-rule="evenodd" d="M195.466 286.419C196.232 286.429 196.999 286.439 197.765 286.449C196.993 286.836 196.226 286.891 195.466 286.419Z" fill="black"/>
<path fill-rule="evenodd" clip-rule="evenodd" d="M51.0777 288.678C51.8555 288.608 52.6339 288.539 53.4117 288.469C52.6339 288.539 51.8555 288.608 51.0777 288.678Z" fill="black"/>
<path fill-rule="evenodd" clip-rule="evenodd" d="M373.214 153.372C373.252 154.078 373.29 154.784 373.328 155.488C373.29 154.781 373.252 154.077 373.214 153.372Z" fill="black"/>
<path fill-rule="evenodd" clip-rule="evenodd" d="M124.914 108.132C125.57 107.808 126.231 107.754 126.898 108.097C126.236 108.108 125.575 108.12 124.914 108.132Z" fill="black"/>
<path fill-rule="evenodd" clip-rule="evenodd" d="M351.761 161.526C351.816 162.121 351.87 162.717 351.924 163.311C351.87 162.714 351.816 162.12 351.761 161.526Z" fill="black"/>
<path fill-rule="evenodd" clip-rule="evenodd" d="M407.161 147.627C406.824 147.045 406.836 146.465 407.177 145.89C407.172 146.47 407.166 147.049 407.161 147.627Z" fill="black"/>
<path fill-rule="evenodd" clip-rule="evenodd" d="M373.321 127.397C373.321 127.987 373.321 128.576 373.321 129.164C373.321 128.573 373.321 127.985 373.321 127.397Z" fill="black"/>
<path fill-rule="evenodd" clip-rule="evenodd" d="M396.83 209.1C397.505 208.893 398.18 208.6 398.852 209.107C398.177 209.105 397.504 209.102 396.83 209.1Z" fill="black"/>
<path fill-rule="evenodd" clip-rule="evenodd" d="M178.69 287.244C179.369 287.18 180.048 287.117 180.727 287.054C180.048 287.117 179.369 287.18 178.69 287.244Z" fill="black"/>
<path fill-rule="evenodd" clip-rule="evenodd" d="M85.57 287.245C86.1922 286.971 86.813 286.828 87.4259 287.266C86.8068 287.258 86.1887 287.252 85.57 287.245Z" fill="black"/>
<path fill-rule="evenodd" clip-rule="evenodd" d="M212.823 286.368C213.488 286.077 214.152 285.917 214.809 286.388C214.146 286.381 213.485 286.375 212.823 286.368Z" fill="black"/>
<path fill-rule="evenodd" clip-rule="evenodd" d="M64.7341 200.3C64.784 200.901 64.8343 201.502 64.8838 202.1C64.8334 201.499 64.7836 200.9 64.7341 200.3Z" fill="black"/>
<path fill-rule="evenodd" clip-rule="evenodd" d="M219.182 165.701C219.837 165.463 220.489 165.339 221.132 165.737C220.482 165.724 219.832 165.713 219.182 165.701Z" fill="black"/>
<path fill-rule="evenodd" clip-rule="evenodd" d="M373.203 183.582C373.24 184.169 373.276 184.756 373.312 185.342C373.275 184.754 373.239 184.168 373.203 183.582Z" fill="black"/>
<path fill-rule="evenodd" clip-rule="evenodd" d="M64.3111 130.604C64.2569 131.077 64.2026 131.55 64.1488 132.021C64.2031 131.547 64.2569 131.076 64.3111 130.604Z" fill="black"/>
<path fill-rule="evenodd" clip-rule="evenodd" d="M26.3747 267.756C26.341 268.217 26.3078 268.677 26.2745 269.135C26.3091 268.674 26.3419 268.215 26.3747 267.756Z" fill="black"/>
<path fill-rule="evenodd" clip-rule="evenodd" d="M386.905 186.689C386.868 186.213 386.831 185.737 386.794 185.263C386.831 185.74 386.868 186.214 386.905 186.689Z" fill="black"/>
<path fill-rule="evenodd" clip-rule="evenodd" d="M339.239 285.479C339.823 285.483 340.406 285.487 340.988 285.491C340.405 285.487 339.822 285.483 339.239 285.479Z" fill="black"/>
<path fill-rule="evenodd" clip-rule="evenodd" d="M165.868 198.303C165.977 198.649 166.086 198.996 166.195 199.343C165.467 199.519 165.358 199.172 165.868 198.303Z" fill="black"/>
<path fill-rule="evenodd" clip-rule="evenodd" d="M209.597 164.918C210.189 164.915 210.782 164.913 211.374 164.91C210.783 165.191 210.191 165.384 209.597 164.918Z" fill="black"/>
<path fill-rule="evenodd" clip-rule="evenodd" d="M65.0661 203.144C65.0862 203.669 65.1064 204.195 65.1256 204.718C65.105 204.192 65.0854 203.668 65.0661 203.144Z" fill="black"/>
<path fill-rule="evenodd" clip-rule="evenodd" d="M71.3329 287.819C71.9047 287.819 72.4761 287.818 73.0479 287.818C72.4757 287.818 71.9047 287.819 71.3329 287.819Z" fill="black"/>
<path fill-rule="evenodd" clip-rule="evenodd" d="M353.2 208.68C353.221 209.163 353.242 209.647 353.263 210.127C353.243 209.643 353.221 209.161 353.2 208.68Z" fill="black"/>
<path fill-rule="evenodd" clip-rule="evenodd" d="M59.1941 288.408C59.7562 288.035 60.3197 288.068 60.8841 288.402C60.3206 288.405 59.7571 288.407 59.1941 288.408Z" fill="black"/>
<path fill-rule="evenodd" clip-rule="evenodd" d="M73.9981 123.85C74.0283 124.344 74.0589 124.838 74.0904 125.328C74.0602 124.834 74.0291 124.342 73.9981 123.85Z" fill="black"/>
<path fill-rule="evenodd" clip-rule="evenodd" d="M56.2691 288.46C56.8536 288.462 57.4381 288.464 58.0222 288.467C57.4359 288.866 56.8519 288.885 56.2691 288.46Z" fill="black"/>
<path fill-rule="evenodd" clip-rule="evenodd" d="M379.926 116.103C379.931 115.602 379.936 115.101 379.94 114.601C379.935 115.103 379.931 115.603 379.926 116.103Z" fill="black"/>
<path fill-rule="evenodd" clip-rule="evenodd" d="M111.586 107.336C112.145 107.409 112.704 107.482 113.263 107.554C112.704 107.481 112.145 107.409 111.586 107.336Z" fill="black"/>
<path fill-rule="evenodd" clip-rule="evenodd" d="M62.2467 150.604C62.2542 151.072 62.2616 151.541 62.2704 152.007C62.2629 151.538 62.255 151.071 62.2467 150.604Z" fill="black"/>
<path fill-rule="evenodd" clip-rule="evenodd" d="M383.69 150.537C383.66 150.06 383.629 149.583 383.599 149.108C383.629 149.586 383.66 150.062 383.69 150.537Z" fill="black"/>
<path fill-rule="evenodd" clip-rule="evenodd" d="M253.284 287.901C253.974 287.963 254.664 288.026 255.353 288.088C254.663 288.025 253.974 287.963 253.284 287.901Z" fill="black"/>
<path fill-rule="evenodd" clip-rule="evenodd" d="M250.979 270.04C250.606 270.046 250.233 270.052 249.864 270.06C250.238 270.055 250.608 270.048 250.979 270.04Z" fill="black"/>
<path fill-rule="evenodd" clip-rule="evenodd" d="M251.01 287.627C251.589 287.684 252.168 287.741 252.746 287.798C252.168 287.741 251.589 287.684 251.01 287.627Z" fill="black"/>
<path fill-rule="evenodd" clip-rule="evenodd" d="M146.876 248.66C147.629 252.914 141.017 257.075 140.493 251.027C140.302 248.816 141.78 247.261 143.436 245.909C145.787 243.99 147.1 245.828 146.876 248.66Z" fill="black"/>
<path fill-rule="evenodd" clip-rule="evenodd" d="M74.0007 196.756C75.5582 197.393 87.4578 201.271 81.2768 203.221C79.6405 203.738 77.1673 203.815 75.749 202.905C74.0427 201.81 72.3216 198.58 74.0007 196.756Z" fill="black"/>
<path fill-rule="evenodd" clip-rule="evenodd" d="M76.929 139.144C80.968 138.675 84.6894 145.309 79.7098 145.094C76.0851 144.937 71.2105 139.144 76.929 139.144Z" fill="black"/>
<path fill-rule="evenodd" clip-rule="evenodd" d="M91.3776 155.41C94.7503 158.352 88.4989 164.938 86.0169 162.389C84.7495 161.087 85.9185 158.282 86.9646 157.193C88.0382 156.075 89.9483 155.865 91.3776 155.41Z" fill="black"/>
<path fill-rule="evenodd" clip-rule="evenodd" d="M101.418 231.696C99.4272 232.012 90.6711 234.874 92.4972 229.677C93.1937 227.695 95.1362 228.283 96.912 228.374C99.7742 228.52 101.418 228.383 101.418 231.696Z" fill="black"/>
<path fill-rule="evenodd" clip-rule="evenodd" d="M95.6505 245.082C98.6312 246.677 94.2741 255.601 91.8035 253.702C88.3757 251.068 93.064 245.884 95.6505 245.082Z" fill="black"/>
<path fill-rule="evenodd" clip-rule="evenodd" d="M108.65 237.908C110.1 237.317 116.932 243.889 114.331 245.717C112.998 246.654 110.472 245.048 109.669 244.079C108.162 242.262 108.026 240.022 108.65 237.908Z" fill="black"/>
<path fill-rule="evenodd" clip-rule="evenodd" d="M69.2305 184.19C70.7119 184.433 73.2695 184.51 73.3653 186.592C73.4493 188.421 71.1555 189.014 69.5407 189.158C67.8651 189.306 65.6469 188.834 65.615 186.727C65.5813 184.454 69.178 184.591 69.2305 184.19Z" fill="black"/>
<path fill-rule="evenodd" clip-rule="evenodd" d="M105.761 274.775C107.338 275.733 114.697 279.181 111.543 281.672C110.362 282.605 106.784 280.679 105.979 279.701C105.018 278.533 104.078 275.796 105.761 274.775Z" fill="black"/>
<path fill-rule="evenodd" clip-rule="evenodd" d="M126.217 249.753C125.989 245.947 132.411 244.432 131.08 249.834C130.704 251.358 130.341 253.67 128.458 253.758C126.232 253.863 126.151 251.229 126.217 249.753Z" fill="black"/>
<path fill-rule="evenodd" clip-rule="evenodd" d="M106.38 183.563C106.425 186.451 100.892 188.997 100.849 184.42C100.811 180.331 106.587 179.134 106.38 183.563Z" fill="black"/>
<path fill-rule="evenodd" clip-rule="evenodd" d="M102.727 168.525C104.09 168.964 105.902 169.19 106.022 170.923C106.149 172.756 104.446 173.572 102.914 173.469C101.658 173.384 99.7984 172.454 99.57 171.091C99.2353 169.09 101.188 168.959 102.727 168.525Z" fill="black"/>
<path fill-rule="evenodd" clip-rule="evenodd" d="M77.3772 221.389C77.354 219.007 82.1289 216.143 83.0083 218.908C83.2896 219.793 81.0391 223.759 80.2905 224.056C78.3099 224.843 78.0334 223.01 77.3772 221.389Z" fill="black"/>
<path fill-rule="evenodd" clip-rule="evenodd" d="M116.505 261.046C114.891 262.49 110.051 266.547 110.413 261.101C110.644 257.622 116.931 257.803 116.505 261.046Z" fill="black"/>
<path fill-rule="evenodd" clip-rule="evenodd" d="M195.361 276.611C195.89 274.321 203.462 278.293 200.935 281.186C200.088 282.157 197.87 281.278 197.017 280.703C195.33 279.564 195.293 278.513 195.361 276.611Z" fill="black"/>
<path fill-rule="evenodd" clip-rule="evenodd" d="M153.171 227.594C153.466 226.574 153.794 224.768 154.768 224.117C156.531 222.938 158.065 224.716 158.065 226.59C158.066 230.086 154.087 231.188 153.171 227.594Z" fill="black"/>
<path fill-rule="evenodd" clip-rule="evenodd" d="M134.403 268.465C136.37 268.915 140.747 273.695 138.208 275.644C135.765 277.52 132.515 269.892 134.403 268.465Z" fill="black"/>
<path fill-rule="evenodd" clip-rule="evenodd" d="M136.275 232.289C138.803 232.49 142.278 236.584 138.349 237.235C135.275 237.744 131.701 233.291 136.275 232.289Z" fill="black"/>
<path fill-rule="evenodd" clip-rule="evenodd" d="M159.161 251.126C159.795 248.991 166.064 251.279 165.712 253.63C165.525 254.88 162.961 255.174 161.614 254.843C159.63 254.356 159.115 253.055 159.161 251.126Z" fill="black"/>
<path fill-rule="evenodd" clip-rule="evenodd" d="M85.2595 131.861C85.305 129.101 90.6097 127.975 90.9982 130.757C91.3495 133.271 85.193 135.945 85.2595 131.861Z" fill="black"/>
<path fill-rule="evenodd" clip-rule="evenodd" d="M157.408 279.572C157.79 278.184 157.955 276.513 159.689 276.33C161.675 276.121 161.616 277.643 161.383 279.221C160.748 283.513 158.322 283.727 157.408 279.572Z" fill="black"/>
<path fill-rule="evenodd" clip-rule="evenodd" d="M73.6375 164.706C70.8721 165.33 65.8071 160.004 68.9029 158.862C71.0843 158.055 73.6375 163.1 73.6375 164.706Z" fill="black"/>
<path fill-rule="evenodd" clip-rule="evenodd" d="M108.91 206.078C107.502 206.741 107.178 207.143 106.097 206.055C105.155 205.108 105.197 202.469 106.005 201.484C109.1 197.711 109.027 204.551 108.91 206.078Z" fill="black"/>
<path fill-rule="evenodd" clip-rule="evenodd" d="M120.392 198.426C121.86 198.613 126.222 202.75 123.951 204.394C121.168 206.408 119.593 200.098 120.392 198.426Z" fill="black"/>
<path fill-rule="evenodd" clip-rule="evenodd" d="M152.15 199.515C151.083 203.624 148.419 200.859 148.57 197.75C148.813 192.771 151.573 197.108 152.15 199.515Z" fill="black"/>
<path fill-rule="evenodd" clip-rule="evenodd" d="M168.342 265.502C170.147 266.249 172.597 273.149 170.019 273.519C167.123 273.934 168.088 266.938 168.342 265.502Z" fill="black"/>
<path fill-rule="evenodd" clip-rule="evenodd" d="M145.8 261.625C147.865 260.928 148.622 265.285 147.422 266.095C144.78 267.875 145.337 262.653 145.8 261.625Z" fill="black"/>
<path fill-rule="evenodd" clip-rule="evenodd" d="M126.217 249.753C126.191 250.331 126.165 250.91 126.138 251.485C126.164 250.905 126.19 250.329 126.217 249.753Z" fill="black"/>
<path fill-rule="evenodd" clip-rule="evenodd" d="M195.361 276.611C195.34 277.204 195.318 277.797 195.296 278.387C195.317 277.793 195.339 277.202 195.361 276.611Z" fill="black"/>
<path fill-rule="evenodd" clip-rule="evenodd" d="M159.161 251.126C159.149 251.63 159.137 252.133 159.124 252.633C159.135 252.128 159.148 251.627 159.161 251.126Z" fill="black"/>
<path fill-rule="evenodd" clip-rule="evenodd" d="M387.622 242.468C391.904 242.33 396.681 240.718 400.889 241.231C402.048 241.373 404.714 241.664 402.858 243.382C401.971 244.204 397.721 243.779 396.435 244.052C388.573 245.717 379.648 246.79 371.586 246.651C367.812 246.587 364.01 246.284 360.238 246.085C356.468 245.885 356.098 244.354 360.339 243.866C364.745 243.361 369.265 243.548 373.692 243.543C378.346 243.537 382.977 242.778 387.622 242.468Z" fill="black"/>
<path fill-rule="evenodd" clip-rule="evenodd" d="M397.023 232.151C396.611 233.324 396.249 236.017 394.67 236.194C392.458 236.441 392.092 232.643 392.173 231.254C392.272 229.578 392.875 226.793 394.959 227.374C396.719 227.864 396.895 230.809 397.023 232.151Z" fill="black"/>
<path fill-rule="evenodd" clip-rule="evenodd" d="M383.631 231.291C383.955 230.035 384.114 227.202 385.891 227.106C387.877 226.998 388.444 229.95 388.431 231.365C388.418 232.707 387.922 235.243 386.34 235.554C384.196 235.974 384.004 232.727 383.631 231.291Z" fill="black"/>
<path fill-rule="evenodd" clip-rule="evenodd" d="M361.33 233.545C360.686 235.056 360.26 237.136 358.269 236.106C356.729 235.31 356.514 232.098 356.805 230.628C357.106 229.104 357.743 227.357 359.494 228.042C361.512 228.833 361.308 231.882 361.33 233.545Z" fill="black"/>
<path fill-rule="evenodd" clip-rule="evenodd" d="M378.218 232.151C376.32 237.905 372.858 234.012 374.172 229.716C375.547 225.225 378.044 229.587 378.218 232.151Z" fill="black"/>
<path fill-rule="evenodd" clip-rule="evenodd" d="M368.969 232.435C368.442 233.449 367.881 235.634 366.46 235.404C364.718 235.122 364.662 231.769 364.853 230.52C365.02 229.428 365.511 227.606 366.969 227.63C369.076 227.664 368.935 231.124 368.969 232.435Z" fill="black"/>
<path fill-rule="evenodd" clip-rule="evenodd" d="M406.836 233.54C405.422 236.711 403.479 233.979 404.101 231.728C405.023 228.388 406.756 231.347 406.836 233.54Z" fill="black"/>
<path fill-rule="evenodd" clip-rule="evenodd" d="M372.227 243.547C370.684 243.541 369.14 243.535 367.597 243.53C369.142 243.239 370.686 243.125 372.227 243.547Z" fill="black"/>
<path fill-rule="evenodd" clip-rule="evenodd" d="M402.897 241.218C401.558 241.227 400.22 241.235 398.882 241.244C400.218 240.843 401.556 240.835 402.897 241.218Z" fill="black"/>
<path fill-rule="evenodd" clip-rule="evenodd" d="M387.622 242.468C386.551 242.539 385.48 242.611 384.409 242.683C385.48 242.611 386.551 242.539 387.622 242.468Z" fill="black"/>
<path fill-rule="evenodd" clip-rule="evenodd" d="M361.33 233.545C361.32 232.776 361.31 232.007 361.3 231.24C361.696 232.004 361.669 232.773 361.33 233.545Z" fill="black"/>
<path fill-rule="evenodd" clip-rule="evenodd" d="M369.727 246.635C370.348 246.641 370.97 246.646 371.586 246.652C370.963 246.646 370.345 246.641 369.727 246.635Z" fill="black"/>
<path fill-rule="evenodd" clip-rule="evenodd" d="M359.295 246.085C359.924 246.085 360.553 246.085 361.178 246.085C360.546 246.085 359.921 246.085 359.295 246.085Z" fill="black"/>
<path fill-rule="evenodd" clip-rule="evenodd" d="M364.454 243.613C363.579 243.685 362.704 243.757 361.829 243.829C362.704 243.757 363.579 243.685 364.454 243.613Z" fill="black"/>
<path fill-rule="evenodd" clip-rule="evenodd" d="M376.284 243.537C375.42 243.539 374.556 243.541 373.692 243.543C374.556 243.179 375.419 243.168 376.284 243.537Z" fill="black"/>
<path fill-rule="evenodd" clip-rule="evenodd" d="M368.969 232.435C368.948 231.634 368.927 230.832 368.907 230.032C368.928 230.834 368.949 231.635 368.969 232.435Z" fill="black"/>
<path fill-rule="evenodd" clip-rule="evenodd" d="M356.805 230.628C356.8 231.41 356.795 232.191 356.789 232.97C356.794 232.187 356.799 231.408 356.805 230.628Z" fill="black"/>
<path fill-rule="evenodd" clip-rule="evenodd" d="M392.531 242.177C391.767 242.246 391.004 242.314 390.241 242.384C391.005 242.314 391.768 242.246 392.531 242.177Z" fill="black"/>
<path fill-rule="evenodd" clip-rule="evenodd" d="M406.836 233.54C406.811 232.857 406.786 232.174 406.762 231.492C406.787 232.175 406.811 232.858 406.836 233.54Z" fill="black"/>
<path fill-rule="evenodd" clip-rule="evenodd" d="M374.343 246.658C374.874 246.648 375.406 246.638 375.932 246.629C375.399 246.639 374.871 246.649 374.343 246.658Z" fill="black"/>
<path fill-rule="evenodd" clip-rule="evenodd" d="M397.023 232.151C396.976 231.66 396.929 231.169 396.883 230.679C396.93 231.171 396.977 231.661 397.023 232.151Z" fill="black"/>
<path fill-rule="evenodd" clip-rule="evenodd" d="M378.218 232.151C378.184 231.647 378.15 231.142 378.115 230.64C378.15 231.144 378.184 231.648 378.218 232.151Z" fill="black"/>
<path fill-rule="evenodd" clip-rule="evenodd" d="M104.065 84.0439C101.974 83.4953 101.582 80.557 101.918 78.7523C102.299 77.8826 102.68 77.0133 103.062 76.1435C102.912 75.822 102.764 75.5004 102.615 75.1788C102.806 73.3877 102.317 72.6094 104.376 73.3348C108.2 74.6831 108.811 83.9057 104.065 84.0439Z" fill="black"/>
<path fill-rule="evenodd" clip-rule="evenodd" d="M135.014 78.3628C136.737 78.2272 139.865 80.2331 138.151 82.1739C137.089 83.3761 133.588 82.8074 132.16 83.0585C130.266 83.3914 128.291 83.8469 129.316 81.0101C130.12 78.7824 132.994 78.3046 135.014 78.3628Z" fill="black"/>
<path fill-rule="evenodd" clip-rule="evenodd" d="M133.202 91.706C131.453 90.3029 132.233 83.9123 134.896 85.0621C137.635 86.2455 134.662 90.7837 133.202 91.706Z" fill="black"/>
<path fill-rule="evenodd" clip-rule="evenodd" d="M101.918 78.7523C101.918 79.4247 101.918 80.0976 101.916 80.7669C101.552 80.0932 101.563 79.4225 101.918 78.7523Z" fill="black"/>
<path fill-rule="evenodd" clip-rule="evenodd" d="M104.065 84.0439C104.422 84.0339 104.779 84.0234 105.131 84.0142C104.773 84.0255 104.419 84.0347 104.065 84.0439Z" fill="black"/>
<path fill-rule="evenodd" clip-rule="evenodd" d="M320.095 268.085C319.931 270.992 316.81 268.843 317.031 266.899C317.433 263.37 319.429 266.857 320.095 268.085Z" fill="black"/>
</svg>
