<svg width="8" height="13" viewBox="0 0 8 13" fill="none" xmlns="http://www.w3.org/2000/svg">
<path d="M2.23994 0.327327C1.86843 -0.0813304 1.23598 -0.111447 0.827327 0.26006C0.41867 0.631567 0.388553 1.26402 0.76006 1.67267L2.23994 0.327327ZM6.5 6.5L7.20711 7.20711C7.58456 6.82966 7.59901 6.2223 7.23994 5.82733L6.5 6.5ZM0.792893 10.7929C0.402369 11.1834 0.402369 11.8166 0.792893 12.2071C1.18342 12.5976 1.81658 12.5976 2.20711 12.2071L0.792893 10.7929ZM0.76006 1.67267L5.76006 7.17267L7.23994 5.82733L2.23994 0.327327L0.76006 1.67267ZM5.79289 5.79289L0.792893 10.7929L2.20711 12.2071L7.20711 7.20711L5.79289 5.79289Z" fill="#FF5678"/>
</svg>
