<svg width="152" height="171" viewBox="0 0 152 171" fill="none" xmlns="http://www.w3.org/2000/svg">
<circle cx="82" cy="101" r="70" fill="#F7CCD5"/>
<mask id="mask0_36:28" style="mask-type:alpha" maskUnits="userSpaceOnUse" x="0" y="0" width="152" height="161">
<path d="M32.8879 146.023C29.9645 142.653 9.74457 115.29 0 102.029L15.9872 0H98.207L151.65 31.8256C154.391 46.8023 140.504 99.2209 128.811 129.174C117.118 159.128 86.483 157.88 64.4055 161C55.1177 157.412 35.8113 149.393 32.8879 146.023Z" fill="#C4C4C4"/>
</mask>
<g mask="url(#mask0_36:28)">
<path fill-rule="evenodd" clip-rule="evenodd" d="M185.321 86.7282C170.901 85.5819 157.143 90.9522 145.618 99.3223C130.763 110.11 118.173 125.538 109.651 141.795C108.744 142.493 107.851 143.208 106.965 143.93C102.222 147.792 97.5877 151.87 93.4802 156.41C91.187 158.944 85.1723 165.106 87.7835 168.992C88.3377 169.817 89.2477 170.291 90.1593 170.618C92.7149 171.532 95.379 171.995 97.8995 173.065C101.011 174.385 104.237 176.234 106.231 179.053C106.797 179.855 106.945 180.801 107.708 181.155C108.516 181.529 110.039 181.383 110.923 181.47C112.698 181.644 114.474 181.818 116.25 181.991C120.423 182.4 124.784 182.445 128.866 183.452L147.642 188.086C151.483 189.033 155.897 189.556 159.539 191.113C164.973 193.437 170.158 196.841 175.359 199.645C177.873 201.001 180.388 202.358 182.902 203.714C184.13 204.377 184.971 204.385 186.41 204.496L196.795 205.294C198.471 205.423 199.275 206.097 199.495 204.422L201.909 186.003L203.184 176.263C203.26 175.683 203.238 172.814 203.713 172.467C204.011 172.25 205.759 172.718 206.083 172.757L210.796 173.334C214.191 173.75 217.586 174.165 220.981 174.581C221.257 174.614 222.783 174.597 222.954 174.822C223.155 175.086 222.773 176.6 222.739 176.926C222.379 180.347 222.019 183.767 221.658 187.187C221.616 187.584 221.134 189.423 221.388 189.748C221.565 189.974 222.844 190.002 223.104 190.044C226.379 190.578 229.653 191.113 232.928 191.647C235.274 192.03 238.339 192.01 240.556 192.892C241.829 193.398 243.089 194.692 244.189 195.5L260.161 207.246C262.583 209.027 265.848 208.574 268.798 208.798L302.828 211.389C302.8 210.33 302.771 209.271 302.743 208.211C302.594 202.602 302.444 196.992 302.294 191.382L302.098 184.045C302.086 183.581 302.272 182.222 301.968 181.878C301.564 181.423 299.76 181.226 299.2 181.06C297.322 180.504 295.444 179.949 293.566 179.393C288.056 177.763 282.547 176.133 277.037 174.504C271.592 172.893 266.147 171.282 260.702 169.672C258.839 169.12 256.976 168.569 255.113 168.018C254.683 167.891 253.18 167.722 252.88 167.358C252.503 166.9 252.672 164.945 252.612 164.364C252.316 161.529 251.895 158.708 251.382 155.905C247.68 135.688 239.028 115.153 222.985 101.666C212.38 92.7506 199.078 87.8216 185.321 86.7282ZM182.778 127.27C184.205 125.595 186.603 122.862 189.125 123.316C191.175 123.684 192.292 126.224 193.006 127.912C195.878 134.697 196.769 142.474 197.662 149.725C198.222 154.275 198.673 158.845 198.961 163.42C188.732 162.634 178.502 161.848 168.273 161.061C168.756 157.804 169.143 154.516 169.724 151.275C170.015 149.65 170.821 148.187 171.51 146.686C174.591 139.972 177.955 132.929 182.778 127.27Z" fill="#FF5678"/>
<path fill-rule="evenodd" clip-rule="evenodd" d="M40.7769 -5L40.5268 -4.99567C33.7383 -4.81517 27.7518 -0.449623 23.1087 4.17047C20.8128 6.45488 18.7191 9.14193 17.7339 12.2687C16.5961 15.8806 16.9705 19.8535 17.8361 23.4785C19.7484 31.4896 22.0856 39.5419 24.7138 47.3492C26.007 51.1899 27.8823 54.9557 28.8583 58.8866C29.6629 62.1251 26.2745 64.484 26.1448 67.812C26.014 71.1694 28.2743 74.3235 31.3803 75.5234C32.7033 76.0344 34.3037 75.6075 35.5233 76.1312C36.6386 76.6098 37.0292 78.0226 37.2433 79.1071C37.5351 80.5862 37.4826 82.0642 37.3997 83.5564C37.3487 84.4693 37.5764 85.9592 37.1307 86.7734C36.8246 87.3326 36.267 87.5154 35.7865 87.898C35.1308 88.4202 34.6939 89.0701 34.1189 89.6702C33.171 90.6607 32.2591 91.1972 32.0017 92.6419C31.8647 92.3137 31.7276 91.9855 31.591 91.6577C30.8844 92.9493 30.3607 93.5687 31.0326 94.7948C28.9482 94.5904 27.7132 98.3693 27.1667 99.8025C26.166 102.425 25.4787 105.15 24.4756 107.775C23.101 111.373 21.2948 114.923 20.4176 118.688C19.6809 121.852 19.0977 125.102 18.4428 128.288C18.0739 130.082 17.7524 131.904 17.0774 133.615C16.815 134.279 16.3279 134.726 16.0261 135.318C15.6136 136.128 15.7749 136.556 15.7552 137.444C15.7205 139.026 14.7217 140.053 14.4076 141.59C14.0722 143.232 13.7981 144.892 13.4597 146.537C12.7778 149.851 11.5146 153.161 11.2105 156.518C10.8574 160.416 10.0998 164.266 9.71888 168.166C9.38544 171.573 9.952 175.231 9.23996 178.527C8.60858 181.452 9.39125 184.127 9.66989 187.032C9.74051 187.769 8.60393 192.16 10.4305 191.317C10.0874 192.352 9.60659 192.845 9.58073 193.981C9.5568 195.043 9.8308 196.135 10.0546 197.164C10.4869 199.154 10.7748 201.324 11.6215 203.188C12.579 205.297 14.0382 205.549 16.0219 206.273C17.3649 206.763 19.7831 208.511 20.8414 206.641C21.4724 208.561 22.7042 207.234 24.0851 207.127C24.0758 207.127 24.8755 207.422 25.0252 207.443C25.5107 207.508 26.0846 207.279 26.5678 207.239C27.7723 207.139 28.954 207.3 30.1322 207.544C32.8472 208.106 35.4739 208.884 38.229 209.276C43.6108 210.041 48.8849 209.679 54.2744 210.014C64.8218 210.669 75.5437 210.119 86.0993 209.836C87.2323 209.805 88.4534 209.964 89.5715 209.79C90.7767 209.602 91.0395 209.032 91.9785 208.461C93.5396 207.513 95.2716 208.435 96.891 208.782C101.646 209.799 106.611 209.874 111.403 210.858C121.14 212.856 130.112 216.799 139.439 220.126C143.482 221.568 148.228 223.903 152.588 224.007C157.872 224.119 156.624 218.918 155.653 215.574C158.706 216.384 163.5 220.085 166.604 217.937C170.302 215.378 165.596 211.123 165.375 208.115C171.985 209.486 179.483 212.493 186.191 210.048C187.482 209.578 188.606 208.584 189.992 208.422C191.432 208.254 192.955 208.763 194.412 208.754C197.73 208.733 200.952 208.292 204.269 208.7C211.665 209.61 218.955 210.109 226.411 210.305C233.916 210.502 241.422 210.947 248.931 210.928C252.743 210.919 256.625 210.467 260.428 210.669C261.922 210.749 265.136 211.833 266.186 210.316C267.239 211.578 268.134 210.735 269.486 210.875C269.235 210.849 270.19 211.401 270.333 211.454C271.044 211.718 271.708 211.637 272.45 211.63C274.426 211.61 276.272 212.534 278.237 212.444C278.735 212.422 279.11 212.277 279.532 212.107C279.632 212.066 279.608 211.637 279.768 211.601C280.73 211.386 280.482 211.974 281.092 212.271C281.769 212.6 282.771 212.068 282.385 213.079C284.222 212.999 285.962 213.617 287.633 212.529C286.843 214.274 289.603 212.824 290.324 212.796C291.523 212.747 292.573 213.346 293.768 213.485C295.202 213.65 296.643 212.985 298.046 213.391C299.145 213.708 299.521 214.472 300.665 214.082C301.637 213.75 302.244 213.029 302.715 212.241C303.366 211.154 303.449 210.669 305.019 210.649C306.182 210.635 307.352 210.885 308.527 210.883C309.873 210.88 311.352 210.738 312.581 211.377C313.905 212.066 314.682 213.115 316.15 213.654C322.752 216.08 329.999 215.438 336.887 215.397C339.793 215.379 341.926 215.646 342.742 212.334C343.431 209.535 343.707 206.608 344.365 203.786C345.171 200.328 346.056 197.12 347.844 194.029C349.579 191.031 351.038 187.934 352.548 184.82C355.689 178.343 360.061 172.833 364.935 167.57C366.787 165.57 368.909 163.343 368.998 160.463C369.058 157.977 367.962 155.401 366.525 153.42C365.241 151.652 363.126 149.657 360.734 150.07C359.293 150.318 358.349 151.479 357.273 152.351C356.098 153.303 354.818 153.951 353.402 154.47C350.099 155.681 347.329 157.006 344.469 159.096C341.575 161.21 338.87 163.578 336.367 166.143C331.562 171.066 326.64 176.18 323.879 182.555C322.791 185.067 322.096 187.489 321.354 190.093C320.626 192.65 318.642 191.946 316.411 191.578C313.693 191.13 310.961 190.89 308.224 190.606C307.194 190.499 305.742 190.467 305.122 189.495C304.438 188.422 305.221 187.032 305.283 185.92C305.317 185.325 305.119 184.887 305.07 184.308C305.013 183.648 305.208 183.046 305.209 182.39C305.21 180.978 304.549 179.721 303.45 178.866C301.394 177.265 298.395 176.311 295.961 175.431C292.638 174.228 289.077 173.637 285.655 172.779C281.801 171.813 277.925 170.942 274.05 170.064C270.243 169.202 266.442 168.314 262.595 167.65C260.338 167.261 257.889 167.403 255.702 166.691C253.376 165.934 253.762 163.596 253.769 161.525C253.78 158.104 253.356 154.582 252.855 151.2C251.788 144.01 249.247 136.973 246.937 130.103C244.712 123.485 241.956 117.134 237.405 111.763C232.975 106.535 227.537 101.804 221.897 97.9192C216.02 93.8711 209.48 90.9465 203.346 87.3326C204.686 86.3079 206.286 85.4335 207.056 83.8553C207.926 82.0738 207.557 79.9437 207.52 78.0396C207.479 75.8906 207.413 74.0042 206.645 71.957C206.225 70.8358 204.6 68.7091 204.849 67.49C205.266 65.4428 209.747 63.9475 211.398 63.1052C213.986 61.7838 216.579 60.4416 218.964 58.7736C221.253 57.1734 223.406 55.2473 224.793 52.7908C225.186 52.0939 225.51 51.3619 225.761 50.6021C226.041 49.7544 225.845 49.4655 226.693 49.4034C228.047 49.3039 230.076 50.6615 231.216 51.2612C237.096 54.3532 243.553 58.5144 250.491 58.2382C253.008 58.1383 255.837 57.3481 256.727 54.7246C257.899 51.2709 255.453 47.7029 253.306 45.2083C257.493 45.8659 265.214 47.9212 268.518 44.1878C270.72 41.7001 269.059 37.7515 267.213 35.5944C264.773 32.745 261.296 31.0102 258.083 29.1971C262.025 27.6952 266.389 26.7349 269.855 24.2218C273.171 21.8186 272.761 18.1264 270.142 15.2916C267.343 12.2613 262.448 10.7093 258.598 9.58431C253.875 8.20433 249.184 8.31502 244.318 8.40759C235.584 8.57343 228.082 11.7908 220.919 16.655C217.131 19.2272 213.398 22.0029 210.039 25.1181C206.888 28.0396 203.527 30.7564 200.423 33.7096C197.415 36.5709 195.049 40.1161 191.874 42.7893C189.175 45.0621 186.215 48.2837 182.786 49.2927C179.149 50.3626 175.876 52.1321 172.208 53.1854C168.048 54.3798 164.474 56.3773 160.619 58.283C144.439 66.2805 127.069 71.4853 110.011 77.2269C101.286 80.1635 92.503 82.2335 83.5954 84.4762C79.1221 85.6024 74.9683 86.2033 70.3522 85.9997C69.2878 85.953 68.2713 85.9253 67.2216 86.073C66.452 86.181 65.8669 86.4718 65.1788 86.012C64.1901 85.3517 63.8184 83.6331 63.2291 82.6547C66.5141 81.6368 69.7301 80.5357 71.229 77.1714C72.1734 75.0513 72.6635 72.5787 73.0776 70.3039C73.2999 69.0798 73.3049 67.8444 73.4948 66.6195C73.599 65.943 73.9209 65.2361 73.8962 64.5449C73.9699 64.9294 76.4178 63.6648 76.7729 63.4299C78.1426 62.5232 78.3919 60.6954 78.3807 59.1527C78.3676 57.4102 77.8412 55.4949 76.6571 54.1735C76.0968 53.5479 75.4299 53.0789 74.6152 52.8433C74.037 52.6759 73.2745 52.895 72.7646 52.7264C70.5031 51.9794 70.2499 46.3866 69.9292 44.3506C69.2222 39.8643 68.5179 35.5813 66.9919 31.2809C64.2097 23.4407 60.6291 15.8212 56.3642 8.68297C52.7099 2.56629 49.059 -4.91276 41.0243 -5H40.7769ZM110.235 183.337C113.487 183.9 116.603 185.049 119.745 186.023C122.678 186.934 125.652 187.513 128.662 188.105C134.652 189.283 140.773 190.361 146.677 191.896C148.339 192.329 149.213 193.304 150.664 193.983C151.739 194.486 152.748 193.976 153.866 193.933C156.301 193.841 159.003 194.634 161.345 195.226C166.873 196.622 171.778 199.046 176.781 201.726C177.229 201.966 180.256 203.35 180.112 203.923C179.995 204.391 176.148 203.135 175.536 203.042C172.437 202.57 169.411 201.594 166.335 200.988C163.811 200.49 161.258 200.153 158.745 199.6C155.947 198.985 149.989 196.847 149.752 201.464C149.496 206.454 155.01 207.989 158.324 210.316C157.955 210.953 152.637 208.853 151.978 208.641C149.717 207.913 147.619 206.599 145.317 206.04C141.312 205.067 141.797 209.488 144.008 211.454C146.465 213.639 150.528 214.299 151.889 217.661C150.102 218.305 147.766 217.096 146.125 216.494C143.97 215.705 141.807 214.927 139.639 214.175C134.772 212.484 130.15 210.156 125.257 208.546C115.218 205.243 104.607 204.296 94.1127 203.709C95.0478 200.084 96.0705 196.48 96.9107 192.831C97.2704 191.269 97.5996 189.7 97.872 188.121C98.0615 187.022 97.9002 184.394 98.6574 183.528C99.5794 182.473 101.981 183.955 103.287 183.927C104.568 183.899 105.501 183.238 106.684 183.03C107.807 182.833 109.137 183.147 110.235 183.337ZM298.86 204.32C298.86 206.053 299.161 208.155 296.88 208.358C295.035 208.522 291.426 208.732 289.955 207.421C291.365 206.734 292.968 206.614 294.465 206.218C296.026 205.805 297.467 205.127 298.86 204.32ZM261.214 172.746C261.908 172.751 263.079 173.522 263.712 173.737C264.87 174.131 266.047 174.463 267.229 174.775C270.782 175.716 275.357 175.862 276.988 179.674C277.802 181.576 278.367 186.467 281.196 186.45C283.712 186.433 285.218 182.806 287.012 181.515C288.866 180.181 291.806 181.089 293.806 181.668C295.839 182.257 298.992 183.011 298.764 185.585C298.6 187.436 298.266 189.12 298.282 191.01C298.302 193.417 298.505 195.818 298.505 198.224C297.078 196.271 295.834 192.343 293.306 191.558C290.752 190.764 289.307 195.223 288.643 196.932C287.82 199.049 286.785 201.45 286.723 203.745C286.703 204.466 287.14 206.445 286.639 207.037C286.194 207.564 284.483 207.182 283.93 207.125C280.507 206.769 277.102 206.325 273.668 206.028C271.905 205.876 271.425 205.489 271.598 203.594C271.733 202.105 271.775 200.686 271.588 199.191C270.755 192.519 266.643 186.415 259.691 185.256C255.502 184.558 250.609 185.069 246.427 185.739C244.815 185.998 243.065 186.778 241.427 186.71C240.217 186.66 240.607 186.591 240.359 185.453C240.186 184.657 239.815 183.979 239.209 183.427C238.731 182.991 238.123 183.237 237.672 182.668C237.346 182.255 237.395 181.694 237.241 181.219C236.94 180.294 236.397 179.047 235.315 178.813C233.574 178.437 231.723 180.767 230.845 181.968C229.937 183.21 229.663 186.919 228.203 187.405C226.518 187.964 224.514 185.758 224.163 184.368C223.69 182.498 224.285 180.475 224.57 178.623C224.59 178.491 224.673 177.26 224.764 177.18C225.01 176.964 226.862 177.024 227.19 177.008C228.804 176.931 230.42 176.928 232.035 176.923C238.367 176.908 244.57 176.285 250.86 175.622C249.946 177.11 248.382 179.554 249.987 181.125C251.177 182.289 253.325 181.705 254.819 181.945C256.93 182.284 260.489 184.286 262.5 182.822C265.336 180.759 262.128 177.214 261.076 175.264C260.85 174.846 260.014 173.375 260.369 172.884C260.675 172.46 260.765 172.743 261.214 172.746ZM308.431 195.678C309.879 196.12 311.337 196.544 312.816 196.871C314.551 197.255 317.241 196.882 318.085 198.789C318.727 200.239 318.408 202.579 317.886 204.023C317.289 205.678 315.887 206.103 314.232 206.229C312.301 206.376 310.344 206.065 308.436 205.801C307.683 205.697 306.882 205.509 306.117 205.508C305.664 205.507 304.749 205.922 304.345 205.583C303.823 205.143 304.167 202.648 304.208 202.05C304.309 200.568 304.591 199.107 304.667 197.623C304.722 196.557 304.32 195.109 305.57 194.882C306.349 194.74 307.755 195.472 308.431 195.678ZM191.533 166.352C192.615 166.539 193.69 166.673 194.789 166.656C195.466 166.646 196.276 166.416 196.902 166.787C198.057 167.473 197.885 169.278 197.846 170.405C197.798 171.771 197.678 173.159 197.532 174.519C197.393 175.819 196.679 177.961 197.687 179.075C198.398 178.297 198.749 175.754 200.122 175.846C201.631 175.948 200.934 178.359 200.8 179.222C200.06 183.993 199.217 188.767 198.555 193.552C198.241 195.827 197.835 198.085 197.625 200.371C197.484 201.906 197.437 203.287 195.721 203.605C194.131 203.9 192.344 203.397 190.737 203.358C189.082 203.318 188.134 203.206 187.182 201.711C189.461 201.212 193.073 201.518 194.357 199.108C195.854 196.297 192.696 193.767 191.142 191.846C189.949 190.37 187.51 185.464 185.295 188.378C184.498 189.427 184.354 191.028 183.952 192.248C183.297 194.231 182.497 196.185 181.712 198.119C174.53 194.414 167.161 191.074 159.328 188.994C161.325 185.622 163.797 182.584 165.291 178.928C166.966 174.831 168.354 170.622 170.066 166.538C172.781 168.122 175.684 164.283 178.387 164.128C182.658 163.884 187.346 165.627 191.533 166.352ZM234.074 193.974C235.563 194.86 237.754 196.583 238.111 198.365C238.728 201.446 235.211 199.386 234.125 198.712C231.851 197.301 229.624 196.85 227.013 197.72C223.664 198.835 220.579 200.717 216.985 199.287C215.197 198.575 211.231 197.054 212.301 194.325C213.039 192.443 215.198 194.057 216.339 194.731C219.327 196.497 221.802 195.379 224.787 194.104C227.773 192.829 231.135 192.224 234.074 193.974ZM340.11 178.165C341.306 179.858 338.876 179.493 337.809 179.658C335.578 180.002 333.281 181.78 333.896 184.295C334.495 186.748 336.844 188.281 337.291 190.855C337.675 193.066 337.305 195.864 335.169 197.078C333.969 197.759 331.346 198.04 330.139 197.257C328.295 196.062 330.585 194.281 331.805 193.689C333.421 192.904 334.727 192.479 333.927 190.418C332.952 187.904 331.058 185.975 331.226 183.099C331.365 180.717 332.623 178.009 334.916 177.019C336.558 176.31 338.991 176.579 340.11 178.165ZM176.914 170.861C174.848 170.772 174.765 173.268 174.87 174.495C175.012 176.173 174.707 177.962 174.672 179.645C174.625 181.875 174.158 189.176 178.104 188.092C180.641 187.395 182.728 184.965 184.768 183.404C186.644 181.967 191.414 180.243 191.723 177.518C192.072 174.441 188.311 173.865 186.156 173.376C183.079 172.678 180.092 170.997 176.914 170.861ZM186.98 89.7555C190.256 90.0713 193.514 90.5577 196.633 91.6453C198.743 92.3812 201.983 92.9088 203.479 94.7146C204.772 96.2762 204.211 98.5024 204.632 100.347C205.2 102.844 206.924 102.502 208.597 100.944C210.598 99.0778 211.177 97.7268 213.963 99.4778C219.731 103.102 224.304 108.454 228.879 113.411C225.341 114.482 218.401 114.741 217.226 119.158C216.583 121.574 218.52 123.33 220.259 124.648C222.506 126.35 224.851 127.924 227.048 129.695C229.099 131.346 233.697 137.923 234.997 132.141C235.803 128.561 234.294 124.862 234.934 121.326C237.716 125.809 240.54 130.28 243.091 134.9C245.262 138.833 246.524 143.04 247.565 147.388C245.942 147.494 244.253 146.67 242.648 147.157C241.103 147.625 240.379 149.086 240.271 150.599C240.086 153.165 241.272 155.777 241.869 158.241C242.278 159.934 242.748 163.775 244.811 164.325C247.162 164.953 248.638 161.339 249.686 159.87C250.684 161.403 250.667 163.646 250.813 165.403C250.913 166.612 251.588 168.871 250.228 169.539C248.955 170.164 246.271 169.381 244.91 169.323C242.384 169.216 239.81 169.011 237.283 169.086C234.897 169.156 231.385 170.432 230.452 167.5C229.817 165.504 229.258 158.331 225.872 162.223C224.368 163.951 223.191 165.921 221.738 167.682C220.273 169.458 218.94 169.575 216.751 169.485C212.418 169.307 208.186 170.139 203.947 170.81C200.226 171.399 200.714 168.244 200.77 165.434C200.854 161.079 199.99 156.526 199.519 152.195C198.398 141.897 196.098 131.722 192.559 121.983C195.519 120.975 200.826 125.04 203.015 121.953C204.814 119.416 202.502 115.92 201.562 113.548C200.388 110.589 199.794 107.497 197.88 104.875C197.276 104.047 196.417 102.937 195.247 103.216C194.244 103.455 193.844 104.734 193.279 105.456C191.487 107.746 189.198 109.463 187.605 111.962C186.63 113.49 185.872 115.123 185.556 116.917C185.469 117.41 185.579 118.42 185.232 118.834C184.155 120.116 180.761 120.098 179.253 120.884C174.104 123.569 172.294 131.386 170.295 136.316C169.731 137.704 169.173 139.095 168.873 140.567C168.673 141.55 168.683 142.8 168.149 143.682C166.984 145.608 163.364 143.888 161.588 143.59C158.61 143.09 155.648 142.614 152.658 142.194C150.834 141.938 148.179 141.278 146.79 142.893C145.349 144.567 146.178 147.204 146.901 149C148.081 151.931 149.59 154.732 150.835 157.637C151.829 159.954 152.324 162.94 154.233 164.725C155.888 166.272 158.625 166.716 160.572 165.457C161.684 164.738 164.537 157.787 165.29 158.098C163.931 163.466 161.938 168.941 159.833 174.065C159.186 175.639 158.076 178.848 156.442 179.701C155.088 180.409 152.015 179.072 150.63 178.813C149.316 178.567 146.723 177.501 145.466 178.282C143.944 179.229 143.758 181.755 143.587 183.323C143.46 184.486 143.691 185.354 142.275 185.296C141.278 185.256 140.271 184.77 139.314 184.525C137.092 183.959 134.787 183.584 132.525 183.219C127.293 182.375 122.064 181.533 116.835 180.667C112.34 179.923 107.903 179.927 103.841 177.796C101.782 176.717 99.4219 176.387 97.2294 175.664C95.0551 174.948 92.8877 174.483 90.6119 174.214C85.6377 173.627 80.7974 173.051 75.8814 172.044C73.1911 171.493 70.5058 170.915 67.8298 170.298C65.4478 169.748 63.145 168.875 60.7746 168.336C58.8025 167.888 57.1827 168.225 56.3379 165.988C55.732 164.384 55.8729 162.586 55.7174 160.907C55.0061 153.236 57.6941 145.522 58.2441 137.893C58.4224 135.422 58.4772 132.944 58.6628 130.475C58.7477 129.344 58.6964 126.05 60.017 125.44C60.137 126.345 60.0436 127.867 61.0721 128.316C60.5697 128.097 61.2292 130.769 61.2647 131.037C61.4052 132.104 61.0548 133.246 61.2397 134.293C61.093 134.661 61.1571 134.938 61.4311 135.125C61.6179 135.276 61.7541 135.467 61.839 135.698C61.8521 136.445 61.6333 136.005 61.6229 136.263C61.5194 138.83 61.9536 141.491 61.768 144.121C61.5715 146.9 60.9506 149.627 60.479 152.368C60.0556 154.829 59.5994 157.295 59.2463 159.767C58.9985 161.501 58.8148 163.493 59.7488 165.072C61.5221 168.07 66.6561 167.744 69.6463 168.234C74.6163 169.049 79.5933 169.785 84.5814 170.477C86.4964 170.743 88.4345 171.35 90.3719 171.381C92.4416 171.413 93.5492 170.578 94.8541 169.051C97.483 165.976 99.1784 162.483 101.368 159.138C102.598 157.259 103.621 156.764 105.692 156.191C107.615 155.658 109.158 154.256 110.723 153.089C114.009 150.639 118.253 147.975 120.41 144.367C122.68 140.571 119.481 139.31 116.419 138.274C117.164 136.295 118.626 134.705 119.83 133.003C121.199 131.066 122.44 129.055 123.914 127.192C126.918 123.394 129.918 119.616 132.834 115.747C135.326 112.441 137.844 109.309 141.025 106.63C144.219 103.94 147.775 101.735 151.283 99.4824C153.115 98.3057 156.332 95.2993 158.648 95.6067C160.895 95.9052 161.783 100.087 162.344 101.844C162.988 103.861 163.216 106.673 164.716 108.261C166.921 110.594 169.211 106.919 170.263 105.225C172.19 102.122 174.162 99.047 176.087 95.9414C176.964 94.5256 178.23 93.1784 178.751 91.5732C178.757 91.5539 179.001 90.1736 178.755 90.3667L178.738 90.3821L178.755 90.3636C179.305 89.8187 181.338 89.7055 182.098 89.6398L182.167 89.6336C183.767 89.4828 185.385 89.6016 186.98 89.7555ZM208.458 176.76C210.3 176.749 212.137 176.963 213.971 177.113C215.581 177.244 217.057 176.998 218.665 176.901C220.654 176.782 221.638 176.99 221.18 179.043C220.847 180.537 220.447 182.527 218.912 183.158C216.839 184.011 214.046 183.896 211.837 184.219C210.215 184.456 208.598 184.671 206.983 184.941C205.911 185.121 205.36 185.308 204.858 184.094C204.438 183.076 204.708 181.716 204.852 180.665C204.962 179.858 204.896 178.439 205.277 177.721C205.846 176.65 207.338 176.767 208.458 176.76ZM122.583 156.288C119.877 158.76 118.056 161.921 116.013 164.919C114.765 166.749 112.324 169.666 114.096 171.885C115.607 173.777 119.118 173.344 121.231 173.435C124.55 173.578 127.262 175.077 130.421 175.85C138.378 177.798 131.77 164.432 130.667 161.643C129.894 159.686 129.096 157.738 128.161 155.852C127.739 155.001 126.897 152.521 125.848 152.197C124.328 151.726 123.546 155.409 122.583 156.288ZM190.947 128.186C192.212 130.602 192.417 133.946 193.017 136.584C194.85 144.652 195.922 152.869 196.764 161.091C192.573 159.43 188.15 159.315 183.725 158.909C180.519 158.614 177.575 158.277 174.368 158.414C173.822 158.437 172.25 158.714 171.799 158.25C171.195 157.626 171.927 155.887 172.106 155.232C173.078 151.671 173.505 147.991 174.609 144.452C175.736 140.843 177.104 137.238 178.561 133.749C179.626 131.197 181.089 128.708 183.671 127.457C185.931 126.361 189.544 125.506 190.947 128.186ZM208.206 143.888C206.48 146.489 204.293 148.765 202.606 151.391C201.411 153.253 200.01 156.698 202.883 157.882C203.891 158.297 205.081 158.118 206.137 158.136C207.771 158.164 209.389 158.305 211.025 158.266C212.572 158.229 214.105 158.041 215.649 157.961C216.622 157.91 217.844 157.985 218.701 157.427C220.999 155.929 219.337 152.871 218.598 150.914C217.812 148.836 216.751 146.87 215.727 144.901C215.017 143.535 213.956 140.751 212.342 140.194C210.43 139.535 209.003 142.688 208.206 143.888ZM124.48 114.413C120.685 118.823 117.39 123.633 114.287 128.546C112.772 130.943 111.302 133.369 109.834 135.795C108.873 137.382 108.152 139.413 106.982 140.851C104.312 144.13 103.57 136.975 103.177 135.419C101.725 129.684 99.9279 123.994 98.329 118.295L99.9678 118.295C106.5 118.291 112.762 118.195 119.122 116.272C120.922 115.727 122.563 114.546 124.48 114.413ZM138.276 115.525C136.21 117.05 122.984 126.003 128.547 129.458C129.698 130.173 131.58 129.849 132.881 129.952C134.548 130.083 136.241 130.244 137.889 130.539C140.021 130.922 142.093 131.589 144.235 131.927C145.938 132.196 148.195 132.509 149.717 131.449C152.227 129.701 150.703 126.267 149.874 124.043C148.696 120.885 147.58 116.656 144.658 114.775C143.978 114.337 143.145 112.774 142.413 112.631C141.267 112.406 139.114 114.907 138.276 115.525ZM65.3062 41.2543C66.3034 42.0168 66.349 43.6004 66.6075 44.7181C67.4774 48.4777 68.6915 52.1375 69.4121 55.9372C70.1145 59.6433 70.3352 63.2918 69.9906 67.0476C69.7606 69.5526 69.7339 72.635 68.2103 74.7682C66.3868 77.3207 62.776 77.1899 60.0452 77.9459C57.4178 78.6733 54.8128 80.926 57.6787 83.2679C58.6971 84.0998 60.0344 84.2352 61.0413 85.0366C62.2832 86.0259 62.9964 87.7985 63.5239 89.2479C63.9585 90.4412 63.9458 90.6692 62.6479 91.0907C62.0551 91.2832 61.4561 91.4054 60.8325 91.3537C59.4123 91.2357 58.1453 90.2985 56.9562 89.5943C53.9236 87.7981 50.4209 85.4003 46.8001 85.1292C45.6427 85.0428 44.3271 85.516 43.2017 85.1404C42.1531 84.7898 42.475 84.5754 42.2928 83.6007C41.5715 79.7377 41.2786 75.9461 39.3077 72.4514C38.3347 70.727 35.7629 67.1996 34.039 69.8843C33.3192 71.0055 33.0587 71.5532 31.4618 71.2091C30.1623 70.9295 28.7348 69.9024 28.9926 68.4025C29.2353 66.9874 31.0974 66.024 32.2259 65.4038C33.7291 64.5785 34.7831 64.6737 36.4198 64.4782C40.917 63.9409 37.764 57.3677 37.1156 54.9013C36.7081 53.3512 36.2314 51.3476 37.3012 49.948C38.9295 47.819 42.4766 48.519 44.7111 48.821C47.8012 49.2387 51.1746 49.4612 54.0668 48.0597C57.1264 46.5771 58.4305 43.2332 61.2995 41.6076C62.3596 41.0067 64.2171 40.4204 65.3062 41.2543ZM51.8785 68.409C49.7524 68.3805 50.786 71.41 51.3679 72.4286C52.5944 74.5768 55.2214 75.4076 57.5281 74.6154C59.3528 73.9887 61.3264 71.2202 58.4686 70.7613C57.0982 70.5414 55.7417 70.6309 54.443 69.9795C53.7032 69.6085 52.7469 68.4206 51.8785 68.409ZM57.2124 52.2992C55.8914 53.1006 58.146 58.2194 58.5257 59.2554C59.144 60.9462 59.6943 62.0377 58.1213 63.3409C57.0275 64.2472 54.8702 65.0294 55.9002 66.8356C56.8535 68.5067 60.1242 67.8059 61.4541 66.9883C63.3873 65.7992 62.8176 63.5218 62.3912 61.6527C62.1125 60.4282 59.5646 50.8721 57.2124 52.2992ZM265.227 18.6899C261.154 20.4289 256.988 21.9998 252.677 23.0477C248.91 23.9637 245.206 24.9515 241.324 24.7363C237.732 24.5376 237.304 28.0639 239.355 30.5061C240.47 31.8328 241.763 31.7997 243.387 31.8509C245.289 31.9111 247.016 32.4383 248.85 32.9104C251.643 33.6293 254.47 34.2399 257.177 35.2546C258.574 35.7784 259.952 36.3943 261.198 37.222C261.981 37.7426 263.728 38.6806 262.804 39.408C261.468 40.459 257.502 39.0193 255.912 38.9244C252.21 38.7038 248.515 38.3698 244.833 37.9066C243.03 37.6794 241.095 37.4549 239.387 36.8004C238.27 36.3723 237.033 35.3094 235.768 35.5793C233.098 36.149 234.421 40.1478 235.633 41.4487C237.432 43.3806 240.164 44.2337 242.489 45.3313C244.114 46.0989 245.728 46.9115 247.306 47.7704C248.051 48.1761 251.525 49.6961 251.415 50.8501C251.299 52.0631 248.558 51.4514 247.88 51.3411C243.354 50.6056 239.271 48.8569 235.089 47.0673C233.259 46.284 231.403 45.5323 229.612 44.6637C228.36 44.0567 227.13 43.1318 225.747 42.856C222.487 42.2054 222.629 45.8443 221.346 47.8101C217.53 53.6525 210.159 56.1447 204.423 59.521C202.253 60.798 200.184 62.2686 198.193 63.8071C196.771 64.9055 196.202 66.4174 194.614 64.9688C193.291 63.7612 192.652 61.9902 191.804 60.4544C190.816 58.6663 189.497 57.0877 188.485 55.3144C186.989 52.6944 186.541 50.1956 189.826 49.2314C193.275 48.2193 196.004 46.7102 198.935 44.5569C206.129 39.2723 212.097 32.524 219.27 27.1988C225.915 22.2652 232.961 17.6354 241.291 16.3106C249.187 15.0545 257.849 15.3638 265.227 18.6899ZM49.7196 56.6384C49.8883 58.0932 50.2468 61.196 52.2691 61.3121C54.7251 61.4528 53.0756 53.9964 51.6844 53.1572C49.4568 51.8135 49.5768 55.4057 49.7196 56.6384ZM72.5732 56.0445C75.639 56.2982 76.5128 59.6541 73.4485 60.8424L72.5732 56.0445ZM61.2056 53.0992C61.5992 54.6223 61.4592 57.0663 62.6822 58.2353C64.4061 59.8826 65.1567 57.4651 65.144 56.0867C65.1317 54.7233 64.4555 51.3131 62.6297 51.1334C61.0697 50.9799 62.368 52.7872 61.2056 53.0992ZM28.1192 19.2137C29.24 21.5443 28.0351 23.8446 27.3643 26.1355C28.7402 26.5787 30.5942 26.2435 31.4343 27.6968C31.9638 28.6128 31.8716 29.992 31.713 30.9839C31.5829 31.7977 30.9153 32.8934 31.471 33.6486C32.1985 34.6371 34.0043 34.1801 34.8066 35.2797C36.0261 36.952 35.3419 40.7718 33.6307 42.0307C31.2256 43.799 32.6608 39.4593 32.8079 38.6691C33.1768 36.6893 31.1244 36.9585 29.7227 36.159C28.9706 35.7301 28.8363 35.6472 28.6638 34.7316C28.5044 33.8881 28.5889 33.219 28.79 32.3099C29.4723 29.2256 28.2794 29.7293 25.8276 29.0497C23.7127 28.4631 23.8821 26.7742 24.4193 24.9989C24.8407 23.6074 26.097 21.3245 24.7362 20.1381C24.1963 19.6672 23.3761 19.965 23.2596 18.9822C23.1809 18.3189 24.0716 17.2312 24.5393 16.8498C26.1514 15.5346 27.4639 17.8507 28.1192 19.2137Z" fill="black"/>
</g>
</svg>
