<svg width="44" height="37" viewBox="0 0 44 37" fill="none" xmlns="http://www.w3.org/2000/svg">
<path d="M41 3.01737C39.3459 4.18435 37.5146 5.07689 35.5764 5.66064C34.5361 4.46428 33.1536 3.61633 31.6158 3.23147C30.078 2.84661 28.4591 2.94342 26.9781 3.5088C25.4972 4.07418 24.2255 5.08085 23.3352 6.39267C22.4448 7.70448 21.9788 9.25814 22 10.8435V12.5712C18.9645 12.6499 15.9567 11.9765 13.2445 10.6111C10.5322 9.24561 8.19964 7.23043 6.45455 4.745C6.45455 4.745 -0.454545 20.2936 15.0909 27.2042C11.5336 29.6193 7.296 30.8303 3 30.6594C18.5455 39.2976 37.5455 30.6594 37.5455 10.7917C37.5439 10.3105 37.4976 9.83044 37.4073 9.35777C39.1701 7.6189 40.4142 5.42346 41 3.01737V3.01737Z" stroke="#FF5678" stroke-width="5" stroke-linecap="round" stroke-linejoin="round"/>
</svg>
